<?xml version="1.0" encoding="UTF-8" standalone="no"?>
<!-- Created with Inkscape (http://www.inkscape.org/) -->

<svg
   width="69.999718mm"
   height="70.00222mm"
   viewBox="0 0 69.999718 70.00222"
   version="1.1"
   id="svg868"
   inkscape:version="1.1 (c4e8f9ed74, 2021-05-24)"
   sodipodi:docname="unsj.svg"
   xmlns:inkscape="http://www.inkscape.org/namespaces/inkscape"
   xmlns:sodipodi="http://sodipodi.sourceforge.net/DTD/sodipodi-0.dtd"
   xmlns="http://www.w3.org/2000/svg"
   xmlns:svg="http://www.w3.org/2000/svg">
  <sodipodi:namedview
     id="namedview870"
     pagecolor="#ffffff"
     bordercolor="#666666"
     borderopacity="1.0"
     inkscape:pageshadow="2"
     inkscape:pageopacity="0.0"
     inkscape:pagecheckerboard="0"
     inkscape:document-units="mm"
     showgrid="false"
     inkscape:zoom="0.48373316"
     inkscape:cx="49.61413"
     inkscape:cy="196.38926"
     inkscape:window-width="1920"
     inkscape:window-height="1027"
     inkscape:window-x="0"
     inkscape:window-y="25"
     inkscape:window-maximized="1"
     inkscape:current-layer="layer1" />
  <defs
     id="defs865">
    <clipPath
       clipPathUnits="userSpaceOnUse"
       id="clipPath20">
      <path
         d="M 222.284,224.639 H 420.709 V 423.071 H 222.284 Z"
         id="path18" />
    </clipPath>
  </defs>
  <g
     inkscape:label="Layer 1"
     inkscape:groupmode="layer"
     id="layer1"
     transform="translate(-31.729423,-96.269606)">
    <g
       id="g14"
       transform="matrix(0.35277777,0,0,-0.35277777,-46.687431,245.51965)"
       inkscape:export-filename="/home/santi/git/institutional-logos/unsj/unsj.png"
       inkscape:export-xdpi="300"
       inkscape:export-ydpi="300">
      <g
         id="g16"
         clip-path="url(#clipPath20)">
        <g
           id="g22"
           transform="translate(327.8124,379.9247)">
          <path
             d="M 0,0 C 0.137,-0.158 0.39,-1.072 0.373,-1.36 0.191,-1.521 -0.641,-1.748 -0.996,-1.73 -1.192,-1.421 -1.375,-0.806 -1.369,-0.367 -1.112,-0.216 -0.463,0.029 0,0"
             style="fill:#000000;fill-opacity:1;fill-rule:nonzero;stroke:none"
             id="path24" />
        </g>
        <g
           id="g26"
           transform="translate(345.1464,353.5596)">
          <path
             d="m 0,0 c 0.16,-0.145 0.486,-1.029 0.494,-1.328 -0.152,-0.173 -0.957,-0.479 -1.328,-0.489 -0.215,0.284 -0.453,0.884 -0.488,1.32 C -1.078,-0.324 -0.459,-0.019 0,0"
             style="fill:#000000;fill-opacity:1;fill-rule:nonzero;stroke:none"
             id="path28" />
        </g>
        <g
           id="g30"
           transform="translate(298.6359,353.8897)">
          <path
             d="M 0,0 C 0.141,-0.158 0.346,-1.09 0.314,-1.374 0.141,-1.528 -0.716,-1.723 -1.062,-1.69 -1.244,-1.374 -1.399,-0.752 -1.374,-0.309 -1.115,-0.169 -0.455,0.044 0,0"
             style="fill:#000000;fill-opacity:1;fill-rule:nonzero;stroke:none"
             id="path32" />
        </g>
        <g
           id="g34"
           transform="translate(342.4434,360.8413)">
          <path
             d="M 0,0 C 0.252,-1.252 1.115,-1.501 1.72,-1.381 3.197,-1.094 2.808,1.04 3.888,1.249 4.193,1.31 4.416,1.256 4.621,1.123 4.642,1.069 4.713,0.936 4.759,0.741 4.841,0.288 4.672,-0.126 4.269,-0.482 4.554,-0.629 4.759,-0.708 5.08,-0.691 5.205,-0.331 5.22,0.079 5.138,0.5 4.931,1.529 4.201,1.832 3.623,1.712 2.215,1.439 2.8,-0.651 1.371,-0.928 1.158,-0.968 0.863,-0.932 0.658,-0.838 0.59,-0.77 0.463,-0.561 0.41,-0.316 0.285,0.353 0.541,0.842 1.088,1.23 L 1.082,1.249 C 0.771,1.288 0.441,1.31 0.093,1.227 -0.004,0.95 -0.077,0.425 0,0"
             style="fill:#000000;fill-opacity:1;fill-rule:nonzero;stroke:none"
             id="path36" />
        </g>
        <g
           id="g38"
           transform="translate(341.5254,364.936)">
          <path
             d="M 0,0 C -0.047,0.115 -0.01,0.251 0.15,0.32 L 1.849,1.004 C 1.877,1.018 1.902,1.007 1.906,0.986 l 0.422,-1.047 c 0.099,-0.238 0.256,-0.5 0.57,-0.443 C 2.8,-0.324 2.693,-0.108 2.595,0.129 L 2.205,1.09 C 2.199,1.115 2.183,1.148 2.23,1.162 L 3.611,1.72 c 0.199,0.082 0.336,0.108 0.406,0.108 0,0 0.061,-0.101 0.135,-0.288 C 4.593,0.45 4.425,0.148 3.978,-0.241 V -0.245 C 4.375,-0.212 4.836,-0.05 5.041,0.04 L 3.947,2.759 C 3.918,2.63 3.863,2.493 3.658,2.403 L -0.16,0.853 C -0.397,0.755 -0.534,0.828 -0.645,0.892 l 1.137,-2.781 c 0.289,0.029 0.83,0.176 1.234,0.346 v 0.01 C 1.064,-1.558 0.578,-1.407 0.15,-0.367 Z"
             style="fill:#000000;fill-opacity:1;fill-rule:nonzero;stroke:none"
             id="path40" />
        </g>
        <g
           id="g42"
           transform="translate(339.8704,367.4326)">
          <path
             d="M 0,0 C 0.008,0.194 0.071,0.303 0.237,0.407 L 3.586,2.504 C 3.676,2.566 3.76,2.62 3.866,2.641 L 4.17,2.166 C 4.522,1.598 4.371,1.31 3.983,0.759 4.043,0.781 4.098,0.817 4.198,0.882 4.356,0.982 4.895,1.367 5,1.508 4.934,1.526 4.879,1.555 4.532,2.094 L 3.274,4.087 C 2.955,4.609 2.955,4.681 2.977,4.746 2.799,4.71 2.209,4.39 2.049,4.3 1.95,4.228 1.895,4.199 1.842,4.152 h 0.01 C 2.514,4.271 2.848,4.282 3.19,3.721 L 3.504,3.228 C 3.436,3.142 3.35,3.087 3.258,3.03 L -0.091,0.932 C -0.255,0.824 -0.386,0.817 -0.558,0.889 Z"
             style="fill:#000000;fill-opacity:1;fill-rule:nonzero;stroke:none"
             id="path44" />
        </g>
        <g
           id="g46"
           transform="translate(340.2164,372.9307)">
          <path
             d="M 0,0 C -0.488,-0.453 -1.09,-0.464 -1.629,0.126 -1.773,0.27 -1.805,0.295 -1.766,0.331 l 1.225,1.144 C -0.275,1.73 -0.16,1.767 -0.16,1.767 -0.109,1.712 -0.049,1.644 0.037,1.572 0.615,0.96 0.408,0.381 0,0 M 0.369,1.605 -0.56,2.602 c 0.019,-0.152 0,-0.288 -0.157,-0.436 l -3.011,-2.835 c -0.145,-0.137 -0.299,-0.148 -0.444,-0.123 l 0.717,-0.763 c -0.021,0.156 -0.008,0.299 0.15,0.432 l 1.272,1.213 c 0.031,0.029 0.06,0.036 0.086,0.015 l 0.181,-0.199 c 0.188,-0.201 0.153,-0.41 0.045,-0.827 L -2.176,-2.357 C -2.262,-2.576 -2.275,-2.691 -2.33,-2.742 l 0.656,-0.701 c -0.064,0.298 -0.076,0.486 0.045,0.874 l 0.563,1.983 c 0.379,-0.166 1.072,-0.36 1.666,0.197 0.549,0.515 0.527,1.202 -0.231,1.994"
             style="fill:#000000;fill-opacity:1;fill-rule:nonzero;stroke:none"
             id="path48" />
        </g>
        <g
           id="g50"
           transform="translate(335.3144,375.0967)">
          <path
             d="m 0,0 c -0.166,0.115 -0.463,0.306 -0.709,0.482 -0.272,0.191 -0.479,0.353 -0.6,0.45 L -1.233,0.989 0.685,2.45 Z M 1.451,2.979 0.875,3.166 C 0.867,3.094 0.83,2.982 0.769,2.9 0.73,2.85 0.668,2.777 0.594,2.72 L -1.483,1.184 -2.785,0.306 C -3.041,0.137 -3.211,0.129 -3.428,0.18 l 0.729,-0.518 c -0.032,0.068 0,0.129 0.037,0.176 0.047,0.047 0.121,0.13 0.22,0.205 l 0.899,0.709 c 0.097,-0.054 0.344,-0.205 0.697,-0.453 0.357,-0.256 0.648,-0.493 0.77,-0.591 L -0.377,-1.407 C -0.434,-1.63 -0.584,-1.756 -0.684,-1.785 l 0.838,-0.593 c -0.109,0.241 -0.082,0.367 0.027,0.759 z"
             style="fill:#000000;fill-opacity:1;fill-rule:nonzero;stroke:none"
             id="path52" />
        </g>
        <g
           id="g54"
           transform="translate(319.7912,377.4927)">
          <path
             d="M 0,0 C 1.271,0.112 1.604,0.943 1.552,1.565 1.415,3.062 -0.743,2.9 -0.835,4.001 c -0.023,0.295 0.052,0.522 0.196,0.705 0.061,0.022 0.205,0.08 0.396,0.097 C 0.228,4.839 0.616,4.631 0.921,4.192 1.111,4.455 1.194,4.645 1.227,4.973 0.881,5.134 0.475,5.188 0.041,5.152 -1.003,5.062 -1.369,4.368 -1.33,3.778 -1.2,2.35 0.944,2.706 1.066,1.263 1.079,1.04 1.02,0.752 0.901,0.551 0.821,0.5 0.595,0.396 0.351,0.371 -0.326,0.313 -0.783,0.622 -1.11,1.209 H -1.132 C -1.2,0.903 -1.262,0.569 -1.215,0.22 -0.958,0.09 -0.427,-0.036 0,0"
             style="fill:#000000;fill-opacity:1;fill-rule:nonzero;stroke:none"
             id="path56" />
        </g>
        <g
           id="g58"
           transform="translate(315.1672,378.6587)">
          <path
             d="m 0,0 c -0.312,-0.086 -0.579,-0.144 -0.725,-0.184 v 0.105 L -0.619,2.335 0.83,0.241 C 0.632,0.18 0.303,0.079 0,0 M 2.762,-1.166 C 2.501,-1.098 2.42,-0.997 2.198,-0.662 L -0.534,3.256 -1.045,2.925 c 0.047,-0.04 0.105,-0.144 0.137,-0.241 0.017,-0.065 0.032,-0.158 0.017,-0.255 l -0.138,-2.58 -0.149,-1.555 C -1.22,-2.015 -1.326,-2.152 -1.502,-2.285 l 0.867,0.223 c -0.074,0.025 -0.09,0.09 -0.109,0.155 -0.021,0.054 -0.021,0.169 -0.021,0.288 l 0.037,1.155 c 0.093,0.032 0.367,0.129 0.794,0.241 0.42,0.108 0.787,0.183 0.936,0.216 l 0.67,-0.947 c 0.133,-0.187 0.139,-0.378 0.093,-0.471 z"
             style="fill:#000000;fill-opacity:1;fill-rule:nonzero;stroke:none"
             id="path60" />
        </g>
        <g
           id="g62"
           transform="translate(312.0842,375.5786)">
          <path
             d="M 0,0 0.951,0.443 C 0.761,0.479 0.662,0.554 0.577,0.738 L -1.171,4.451 C -1.258,4.634 -1.249,4.76 -1.157,4.922 L -2.116,4.479 C -1.92,4.447 -1.815,4.375 -1.734,4.188 L 0.016,0.475 C 0.099,0.292 0.099,0.166 0,0"
             style="fill:#000000;fill-opacity:1;fill-rule:nonzero;stroke:none"
             id="path64" />
        </g>
        <g
           id="g66"
           transform="translate(311.0637,375.147)">
          <path
             d="M 0,0 C -0.075,0.252 -0.353,0.77 -0.57,1.094 L -0.586,1.09 c 0.289,-0.874 0.115,-1.255 -0.403,-1.615 -0.989,-0.67 -2.076,-0.216 -2.798,0.838 -0.443,0.644 -0.603,1.32 -0.558,1.943 0.092,0.162 0.29,0.41 0.585,0.619 0.327,0.223 0.817,0.392 1.402,0.205 0.059,0.241 0.075,0.558 -0.06,0.838 C -2.76,3.85 -3.249,3.688 -3.638,3.425 -4.832,2.605 -5.065,1.065 -4.123,-0.313 -3.339,-1.468 -2.101,-1.742 -0.982,-0.968 -0.48,-0.633 -0.237,-0.335 0,0"
             style="fill:#000000;fill-opacity:1;fill-rule:nonzero;stroke:none"
             id="path68" />
        </g>
        <g
           id="g70"
           transform="translate(305.6926,373.7363)">
          <path
             d="m 0,0 0.812,-0.831 -0.248,0.043 -4.902,0.439 0.342,-0.291 2.809,-2.947 c 0.162,-0.158 0.197,-0.305 0.154,-0.533 l 0.644,0.645 C -0.63,-3.547 -0.76,-3.482 -0.925,-3.335 L -2.3,-2.004 -3.228,-1.065 -3.044,-1.1 1.802,-1.5 -1.362,1.835 C -1.521,1.99 -1.561,2.134 -1.516,2.368 L -2.17,1.72 c 0.252,0.065 0.389,0.011 0.539,-0.148 z"
             style="fill:#000000;fill-opacity:1;fill-rule:nonzero;stroke:none"
             id="path72" />
        </g>
        <g
           id="g74"
           transform="translate(302.7386,367.3252)">
          <path
             d="m 0,0 c -0.072,-0.101 -0.205,-0.159 -0.342,-0.062 l -1.544,0.976 c -0.039,0.018 -0.047,0.039 -0.028,0.054 l 0.597,0.964 c 0.138,0.212 0.266,0.493 0.032,0.723 C -1.367,2.461 -1.49,2.248 -1.619,2.033 L -2.174,1.158 C -2.185,1.137 -2.208,1.111 -2.242,1.137 l -1.265,0.791 c -0.182,0.119 -0.289,0.216 -0.325,0.266 0,0 0.05,0.109 0.158,0.281 0.624,0.993 0.975,1.036 1.544,0.889 l 0.009,0.014 C -2.379,3.684 -2.783,3.961 -2.982,4.08 L -4.541,1.601 c 0.12,0.046 0.267,0.086 0.45,-0.04 l 3.499,-2.195 c 0.214,-0.133 0.229,-0.28 0.237,-0.406 L 1.248,1.5 C 1.049,1.716 0.618,2.072 0.244,2.303 L 0.235,2.292 C 0.642,1.777 0.809,1.288 0.201,0.334 Z"
             style="fill:#000000;fill-opacity:1;fill-rule:nonzero;stroke:none"
             id="path76" />
        </g>
        <g
           id="g78"
           transform="translate(301.4211,364.1694)">
          <path
             d="M 0,0 0.367,0.982 C 0.216,0.875 0.085,0.857 -0.104,0.932 L -3.94,2.385 C -4.13,2.454 -4.213,2.551 -4.258,2.734 L -4.631,1.753 c 0.157,0.107 0.288,0.129 0.472,0.057 L -0.316,0.357 C -0.135,0.281 -0.05,0.191 0,0"
             style="fill:#000000;fill-opacity:1;fill-rule:nonzero;stroke:none"
             id="path80" />
        </g>
        <g
           id="g82"
           transform="translate(300.9749,362.8525)">
          <path
             d="M 0,0 C -0.212,0.133 -0.776,0.328 -1.162,0.414 V 0.403 c 0.805,-0.442 0.941,-0.842 0.805,-1.464 -0.25,-1.159 -1.355,-1.576 -2.609,-1.303 -0.762,0.173 -1.341,0.561 -1.736,1.04 -0.045,0.18 -0.072,0.493 0,0.842 0.09,0.396 0.327,0.853 0.874,1.123 -0.115,0.215 -0.32,0.449 -0.603,0.565 -0.212,-0.289 -0.455,-0.734 -0.553,-1.195 -0.319,-1.421 0.562,-2.695 2.2,-3.058 1.367,-0.299 2.45,0.345 2.745,1.669 C 0.091,-0.784 0.068,-0.399 0,0"
             style="fill:#000000;fill-opacity:1;fill-rule:nonzero;stroke:none"
             id="path84" />
        </g>
        <g
           id="g86"
           transform="translate(344.9623,342.5781)">
          <path
             d="M 0,0 C 0.678,1.098 0.199,1.853 -0.328,2.184 -1.607,2.979 -2.763,1.141 -3.697,1.72 c -0.258,0.158 -0.399,0.352 -0.449,0.579 0.006,0.061 0.05,0.209 0.15,0.378 0.254,0.395 0.649,0.583 1.192,0.572 C -2.91,3.551 -3.01,3.745 -3.254,3.954 -3.592,3.771 -3.881,3.483 -4.109,3.112 -4.656,2.224 -4.32,1.508 -3.82,1.194 -2.603,0.442 -1.607,2.374 -0.371,1.615 -0.181,1.493 0.008,1.271 0.1,1.062 0.1,0.961 0.049,0.72 -0.082,0.515 -0.441,-0.065 -0.959,-0.252 -1.633,-0.162 L -1.64,-0.173 c 0.203,-0.256 0.433,-0.489 0.746,-0.666 C -0.637,-0.713 -0.224,-0.36 0,0"
             style="fill:#000000;fill-opacity:1;fill-rule:nonzero;stroke:none"
             id="path88" />
        </g>
        <g
           id="g90"
           transform="translate(341.5154,338.8359)">
          <path
             d="m 0,0 c -0.082,-0.097 -0.217,-0.122 -0.352,0 l -1.312,1.263 c -0.031,0.025 -0.031,0.051 -0.012,0.065 l 0.785,0.823 c 0.176,0.181 0.352,0.432 0.17,0.696 C -0.844,2.685 -1.002,2.49 -1.178,2.31 L -1.893,1.565 C -1.908,1.54 -1.932,1.522 -1.961,1.558 l -1.084,1.029 c -0.156,0.151 -0.232,0.267 -0.264,0.335 0,0 0.069,0.094 0.213,0.233 0.815,0.85 1.156,0.818 1.697,0.569 l 0.008,0.007 C -1.59,4.08 -1.924,4.437 -2.092,4.591 L -4.125,2.472 C -3.996,2.49 -3.852,2.501 -3.69,2.35 l 2.983,-2.857 c 0.183,-0.179 0.168,-0.324 0.15,-0.453 L 1.531,1.209 C 1.387,1.468 1.037,1.9 0.711,2.206 L 0.701,2.191 C 0.984,1.602 1.041,1.091 0.273,0.28 Z"
             style="fill:#000000;fill-opacity:1;fill-rule:nonzero;stroke:none"
             id="path92" />
        </g>
        <g
           id="g94"
           transform="translate(337.4624,335.3536)">
          <path
             d="m 0,0 c -0.469,-0.367 -0.709,-0.374 -1.076,0.083 l -2.037,2.562 c -0.207,0.262 -0.223,0.331 -0.223,0.331 0,0 0.084,0.096 0.244,0.222 1.205,0.961 2.459,0.713 3.303,-0.356 C 1.004,1.856 0.936,0.752 0,0 M 0.545,3.476 C -0.375,4.63 -1.744,4.619 -3.074,3.558 L -4.195,2.659 c 0.123,0.01 0.273,-0.008 0.42,-0.177 l 2.572,-3.227 c 0.152,-0.198 0.127,-0.338 0.096,-0.464 l 1.219,0.964 C 1.369,0.767 1.49,2.292 0.545,3.476"
             style="fill:#000000;fill-opacity:1;fill-rule:nonzero;stroke:none"
             id="path96" />
        </g>
        <g
           id="g98"
           transform="translate(332.1404,333.8458)">
          <path
             d="M 0,0 C -0.279,-0.147 -0.524,-0.259 -0.666,-0.324 L -0.69,-0.23 -1.088,2.151 0.771,0.406 C 0.586,0.316 0.273,0.137 0,0 M 2.287,-0.19 -1.201,3.076 -1.629,2.644 c 0.055,-0.032 0.131,-0.122 0.186,-0.211 0.031,-0.058 0.06,-0.145 0.068,-0.242 l 0.394,-2.554 0.182,-1.555 c 0.033,-0.306 -0.035,-0.464 -0.189,-0.633 l 0.806,0.404 c -0.084,0.013 -0.113,0.068 -0.142,0.122 -0.022,0.049 -0.055,0.172 -0.08,0.288 l -0.217,1.126 c 0.097,0.06 0.342,0.205 0.734,0.402 0.391,0.198 0.725,0.35 0.877,0.414 l 0.846,-0.788 c 0.166,-0.158 0.215,-0.342 0.197,-0.446 l 0.914,0.464 C 2.68,-0.551 2.572,-0.468 2.287,-0.19"
             style="fill:#000000;fill-opacity:1;fill-rule:nonzero;stroke:none"
             id="path100" />
        </g>
        <g
           id="g102"
           transform="translate(327.2364,330.4386)">
          <path
             d="m 0,0 c -0.58,-0.13 -0.799,-0.025 -0.932,0.54 l -0.715,3.191 c -0.066,0.334 -0.043,0.396 -0.043,0.396 0,0 0.104,0.051 0.301,0.101 C 0.113,4.559 1.138,3.796 1.435,2.468 1.716,1.23 1.177,0.27 0,0 M 2.011,2.882 C 1.689,4.328 0.437,4.911 -1.211,4.533 L -2.614,4.221 c 0.116,-0.051 0.25,-0.123 0.307,-0.342 l 0.904,-4.026 c 0.047,-0.249 -0.031,-0.372 -0.115,-0.461 l 1.508,0.341 c 1.582,0.357 2.353,1.67 2.021,3.149"
             style="fill:#000000;fill-opacity:1;fill-rule:nonzero;stroke:none"
             id="path104" />
        </g>
        <g
           id="g106"
           transform="translate(322.3204,329.5245)">
          <path
             d="M 0,0 1.048,0.072 C 0.88,0.177 0.812,0.281 0.796,0.482 L 0.516,4.577 C 0.492,4.778 0.546,4.894 0.691,5.016 L -0.35,4.94 c 0.165,-0.1 0.233,-0.212 0.242,-0.403 L 0.187,0.439 C 0.205,0.237 0.156,0.119 0,0"
             style="fill:#000000;fill-opacity:1;fill-rule:nonzero;stroke:none"
             id="path108" />
        </g>
        <g
           id="g110"
           transform="translate(319.4494,331.878)">
          <path
             d="M 0,0 -0.151,-1.159 -0.272,-0.933 -2.938,3.213 -2.956,2.76 -3.559,-1.264 c -0.027,-0.229 -0.117,-0.341 -0.322,-0.445 l 0.907,-0.126 c -0.205,0.158 -0.245,0.295 -0.216,0.518 l 0.209,1.896 0.167,1.317 0.081,-0.173 2.665,-4.076 0.684,4.551 C 0.638,2.425 0.732,2.547 0.942,2.641 L 0.024,2.767 C 0.228,2.608 0.274,2.472 0.25,2.248 Z"
             style="fill:#000000;fill-opacity:1;fill-rule:nonzero;stroke:none"
             id="path112" />
        </g>
        <g
           id="g114"
           transform="translate(312.4025,333.0401)">
          <path
             d="M 0,0 C -0.303,0.126 -0.562,0.227 -0.691,0.299 L -0.63,0.374 0.892,2.252 0.806,-0.299 C 0.607,-0.224 0.275,-0.111 0,0 M 0.558,-2.188 1.519,-2.573 C 1.357,-2.36 1.346,-2.228 1.363,-1.828 L 1.509,2.939 0.899,2.986 C 0.914,2.914 0.899,2.803 0.867,2.702 0.838,2.647 0.793,2.562 0.737,2.493 L -0.929,0.507 -1.972,-0.662 c -0.205,-0.224 -0.378,-0.27 -0.589,-0.277 l 0.81,-0.328 c -0.026,0.058 -0.009,0.13 0,0.184 0.031,0.058 0.102,0.151 0.17,0.244 l 0.707,0.91 c 0.107,-0.036 0.381,-0.118 0.791,-0.28 0.403,-0.162 0.737,-0.32 0.885,-0.389 L 0.77,-1.753 c 0,-0.229 -0.116,-0.385 -0.212,-0.435"
             style="fill:#000000;fill-opacity:1;fill-rule:nonzero;stroke:none"
             id="path116" />
        </g>
        <g
           id="g118"
           transform="translate(304.7805,335.3965)">
          <path
             d="M 0,0 C -0.031,0.108 -0.013,0.23 0.113,0.41 L 1.391,2.062 1.946,2.72 1.994,2.799 1.451,-0.921 4.625,1.065 4.561,0.961 3.232,-1.598 C 3.124,-1.81 2.968,-1.925 2.829,-1.899 L 3.671,-2.468 C 3.63,-2.321 3.603,-2.177 3.743,-1.921 L 5.819,2.13 H 5.803 L 2.167,-0.141 2.79,4.155 1.383,2.479 -0.209,0.662 C -0.318,0.532 -0.482,0.421 -0.66,0.438 Z"
             style="fill:#000000;fill-opacity:1;fill-rule:nonzero;stroke:none"
             id="path120" />
        </g>
        <g
           id="g122"
           transform="translate(301.2161,338.4796)">
          <path
             d="M 0,0 C 0.784,-0.863 1.796,-0.755 2.711,0.065 3.965,1.191 4.127,1.339 4.652,1.742 4.811,1.868 4.926,1.907 5.107,1.868 L 4.55,2.486 C 4.566,2.296 4.514,2.195 4.377,2.044 3.922,1.555 3.746,1.393 2.429,0.22 1.79,-0.363 0.97,-0.489 0.344,0.202 -0.28,0.9 -0.05,1.555 0.558,2.098 l 2.085,1.881 c 0.149,0.137 0.283,0.163 0.471,0.12 L 2.398,4.887 C 2.429,4.695 2.382,4.573 2.23,4.44 L 0.145,2.573 C -0.791,1.727 -0.791,0.9 0,0"
             style="fill:#000000;fill-opacity:1;fill-rule:nonzero;stroke:none"
             id="path124" />
        </g>
        <g
           id="g126"
           transform="translate(296.7834,345.2549)">
          <path
             d="m 0,0 0.525,-0.914 c 0.017,0.187 0.083,0.295 0.256,0.393 l 1.667,0.957 c 0.448,-0.666 0.837,-1.35 1.179,-2.07 L 1.954,-2.587 C 1.788,-2.681 1.648,-2.688 1.482,-2.604 l 0.519,-0.912 c 0.022,0.184 0.084,0.292 0.266,0.389 l 3.567,2.033 c 0.179,0.101 0.297,0.101 0.474,0.018 L 5.789,-0.158 C 5.766,-0.349 5.699,-0.457 5.528,-0.554 L 3.892,-1.482 c -0.43,0.666 -0.819,1.345 -1.175,2.065 l 1.626,0.929 c 0.177,0.1 0.304,0.1 0.478,0.017 L 4.305,2.443 C 4.292,2.256 4.214,2.145 4.048,2.051 L 0.479,0.018 C 0.295,-0.086 0.175,-0.086 0,0"
             style="fill:#000000;fill-opacity:1;fill-rule:nonzero;stroke:none"
             id="path128" />
        </g>
        <g
           id="g130"
           transform="translate(333.2454,349.5332)">
          <path
             d="m 0,0 -6.209,1.177 1.293,-6.19 -4.781,4.127 -1.967,-6.005 -2.087,5.966 -4.708,-4.217 1.178,6.214 -6.185,-1.296 4.116,4.783 -5.998,1.967 5.966,2.087 -4.214,4.706 6.201,-1.18 -1.294,6.185 4.793,-4.119 1.963,6.001 2.086,-5.969 4.703,4.22 -1.18,-6.21 6.195,1.295 -4.13,-4.785 6.002,-1.972 -5.959,-2.083 z m -11.978,25.833 c -10.567,-0.093 -19.098,-8.79 -19.001,-19.36 0.101,-10.553 8.797,-19.091 19.369,-18.995 10.552,0.109 19.089,8.808 18.989,19.365 -0.105,10.571 -8.802,19.094 -19.357,18.99"
             style="fill:#000000;fill-opacity:1;fill-rule:evenodd;stroke:none"
             id="path132" />
        </g>
        <g
           id="g134"
           transform="translate(321.4924,248.5925)">
          <path
             d="m 0,0 c -41.569,0 -75.263,33.698 -75.263,75.262 0,41.563 33.694,75.259 75.263,75.259 41.572,0 75.253,-33.696 75.253,-75.259 C 75.253,33.698 41.572,0 0,0 m 0,174.479 c -54.786,0 -99.209,-44.42 -99.209,-99.217 0,-54.801 44.423,-99.215 99.209,-99.215 54.787,0 99.216,44.414 99.216,99.215 0,54.797 -44.429,99.217 -99.216,99.217"
             style="fill:#000000;fill-opacity:1;fill-rule:evenodd;stroke:none"
             id="path136" />
        </g>
        <g
           id="g138"
           transform="translate(246.8217,356.5703)">
          <path
             d="m 0,0 c -0.261,-0.586 -0.487,-0.942 -0.764,-1.058 -0.256,-0.119 -0.63,-0.043 -1.185,0.206 l -8.134,3.659 c 0.038,0.115 0.105,0.277 0.182,0.457 l 0.016,0.025 c 0.742,1.655 1.838,2.688 3.096,3.137 1.256,0.461 2.719,0.339 4.185,-0.327 L -2.588,6.092 C -1.229,5.477 -0.285,4.584 0.166,3.522 0.606,2.483 0.578,1.27 0,0 M 1.6,4.804 C 0.948,6.466 -0.376,7.833 -2.23,8.668 L -2.322,8.711 C -4.102,9.484 -5.791,9.452 -7.283,8.722 -8.812,7.977 -10.1,6.513 -11.033,4.436 l -2.018,-4.511 1.126,0.665 c 0.097,0.061 0.22,0.116 0.334,0.134 0.121,0.014 0.26,0.003 0.425,-0.073 l 9.544,-4.281 c 0.205,-0.094 0.329,-0.198 0.393,-0.299 0.069,-0.097 0.101,-0.219 0.125,-0.338 l 0.257,-1.285 c 0.732,1.623 1.468,3.249 2.191,4.876 0.845,1.943 0.875,3.85 0.256,5.48"
             style="fill:#ffffff;fill-opacity:1;fill-rule:evenodd;stroke:none"
             id="path140" />
        </g>
        <g
           id="g142"
           transform="translate(260.6399,377.7373)">
          <path
             d="m 0,0 c -0.442,-0.471 -0.779,-0.734 -1.076,-0.759 -0.274,-0.025 -0.608,0.162 -1.041,0.579 l -6.079,5.667 c -0.214,0.201 -0.349,0.342 -0.432,0.435 0.083,0.101 0.182,0.231 0.31,0.364 1.218,1.302 2.54,1.936 3.851,1.989 1.376,0.058 2.754,-0.536 3.971,-1.669 C 0.598,5.584 1.198,4.426 1.284,3.278 1.367,2.155 0.95,1.019 0,0 m -11.014,-7.75 c -0.197,-0.306 -0.388,-0.586 -0.553,-0.845 l -0.184,-0.274 -2.954,3.49 4.516,-1.004 c -0.238,-0.421 -0.54,-0.921 -0.825,-1.367 M 0.68,8.923 c -1.468,1.371 -3.132,1.907 -4.821,1.68 C -5.8,10.373 -7.482,9.405 -9.01,7.765 l -3.38,-3.617 1.286,0.256 c 0.124,0.025 0.244,0.047 0.368,0.022 0.111,-0.022 0.241,-0.076 0.386,-0.209 l 7.641,-7.135 c 0.158,-0.158 0.241,-0.288 0.274,-0.41 0.023,-0.111 0.012,-0.241 0,-0.356 L -2.536,-4.422 -3.724,-5.04 c -0.234,-0.123 -0.41,-0.173 -0.608,-0.173 -0.248,0 -0.549,0.071 -1.02,0.183 -3.256,1.058 -8.64,1.914 -12.205,2.695 l -0.632,-2.403 0.541,-0.004 c 0.047,0 0.123,-0.018 0.198,-0.043 0.083,-0.029 0.175,-0.072 0.257,-0.126 0.063,-0.032 0.138,-0.09 0.207,-0.155 0.054,-0.054 0.121,-0.104 0.17,-0.172 l 4.17,-5.067 2.374,-3.137 c 0.194,-0.27 0.302,-0.478 0.34,-0.676 0.045,-0.194 0.031,-0.396 -0.009,-0.626 l -0.331,-2.033 2.995,4.702 -1.169,-0.442 c -0.03,0.011 -0.063,0.032 -0.094,0.057 -0.037,0.015 -0.104,0.069 -0.174,0.148 -0.091,0.093 -0.191,0.198 -0.273,0.292 l -1.735,1.971 c 0.176,0.321 0.477,0.845 0.917,1.54 0.483,0.759 0.922,1.396 1.197,1.781 l 2.603,-0.568 c 0.191,-0.04 0.349,-0.116 0.464,-0.202 0.123,-0.083 0.194,-0.173 0.22,-0.234 l 0.277,-0.849 2.483,3.9 -0.041,-0.299 3.585,3.829 C 2.433,0.407 3.102,2.209 3.059,3.961 3.004,5.768 2.181,7.52 0.68,8.923"
             style="fill:#ffffff;fill-opacity:1;fill-rule:evenodd;stroke:none"
             id="path144" />
        </g>
        <g
           id="g146"
           transform="translate(385.2552,381.6196)">
          <path
             d="m 0,0 c -1.092,-1.033 -2.26,-1.572 -3.412,-1.594 -1.129,-0.025 -2.26,0.457 -3.225,1.472 -0.439,0.471 -0.683,0.813 -0.693,1.112 -0.014,0.277 0.199,0.6 0.633,1.014 l 6.006,5.743 c 0.24,0.237 0.369,0.363 0.429,0.431 0.1,-0.082 0.225,-0.201 0.375,-0.356 C 1.373,6.501 1.93,5.098 1.879,3.756 1.82,2.418 1.162,1.119 0,0 m 1.619,8.438 -3.418,3.568 0.184,-1.295 c 0.021,-0.115 0.033,-0.244 0,-0.363 C -1.644,10.233 -1.707,10.11 -1.842,9.981 L -9.392,2.749 C -9.558,2.591 -9.705,2.522 -9.814,2.494 -9.939,2.472 -10.058,2.49 -10.176,2.508 l -1.295,0.248 3.641,-3.799 c 1.483,-1.555 3.272,-2.332 5.051,-2.357 1.781,-0.029 3.547,0.687 5.014,2.09 C 3.69,0.079 4.319,1.716 4.184,3.411 4.049,5.084 3.182,6.815 1.619,8.438"
             style="fill:#ffffff;fill-opacity:1;fill-rule:evenodd;stroke:none"
             id="path148" />
        </g>
        <g
           id="g150"
           transform="translate(290.638,404.3866)">
          <path
             d="M 0,0 C -0.316,-0.135 -0.637,-0.268 -0.934,-0.385 L -1.237,-0.507 -1.701,4.035 1.45,0.662 C 1.015,0.454 0.493,0.207 0,0 m 9.089,-2.068 -1.546,0.19 c -0.261,0.032 -0.434,0.09 -0.599,0.205 -0.205,0.144 -0.419,0.371 -0.741,0.72 L -2.35,8.162 -4.228,6.538 -3.785,6.229 c 0.045,-0.03 0.092,-0.082 0.137,-0.15 0.061,-0.078 0.108,-0.157 0.151,-0.246 0.021,-0.06 0.054,-0.151 0.077,-0.252 0.022,-0.069 0.038,-0.15 0.042,-0.224 l 0.575,-6.537 0.196,-3.935 C -2.59,-5.443 -2.63,-5.677 -2.705,-5.867 -2.773,-6.051 -2.903,-6.209 -3.058,-6.378 l -1.421,-1.486 5.127,2.191 -1.223,0.295 c -0.017,0.022 -0.04,0.058 -0.053,0.09 -0.009,0.036 -0.032,0.119 -0.045,0.223 -0.032,0.14 -0.047,0.274 -0.071,0.4 l -0.319,2.601 c 0.326,0.172 0.869,0.434 1.621,0.754 0.807,0.348 1.544,0.62 2.002,0.789 L 4.387,-2.453 C 4.53,-2.597 4.605,-2.733 4.66,-2.874 4.714,-3.017 4.714,-3.129 4.699,-3.197 L 4.447,-4.05 Z"
             style="fill:#ffffff;fill-opacity:1;fill-rule:evenodd;stroke:none"
             id="path152" />
        </g>
        <g
           id="g154"
           transform="translate(350.5953,404.8149)">
          <path
             d="M 0,0 C -0.375,0.137 -0.686,0.249 -0.953,0.349 L -1.256,0.468 1.482,4.125 1.516,-0.497 C 1.041,-0.349 0.479,-0.172 0,0 m 14.068,-8.314 c -0.654,-0.608 -1.25,-1.007 -1.879,-1.13 -0.636,-0.122 -1.355,0.029 -2.267,0.518 l -0.996,0.529 c -0.137,0.076 -0.223,0.144 -0.254,0.205 -0.016,0.062 0,0.166 0.086,0.306 l 4.734,8.899 c 0.09,0.164 0.19,0.259 0.295,0.319 0.1,0.057 0.231,0.082 0.358,0.096 l 1.293,0.17 -4.657,2.481 0.571,-1.168 C 11.41,2.799 11.465,2.688 11.473,2.562 11.488,2.445 11.465,2.301 11.365,2.137 L 6.459,-7.091 C 6.354,-7.292 6.248,-7.407 6.139,-7.468 6.031,-7.522 5.902,-7.551 5.789,-7.558 l -0.57,-0.08 -0.967,1.134 C 4.086,-6.303 3.994,-6.141 3.965,-5.943 3.902,-5.706 3.898,-5.396 3.902,-4.91 3.801,-0.779 3.85,3.438 3.818,7.584 L 1.33,7.665 1.451,7.142 C 1.467,7.095 1.467,7.02 1.451,6.937 1.443,6.843 1.42,6.746 1.385,6.66 1.371,6.591 1.33,6.503 1.283,6.413 1.248,6.347 1.201,6.282 1.156,6.221 L -2.855,1.038 -5.396,-1.986 C -5.602,-2.227 -5.791,-2.383 -5.975,-2.467 -6.158,-2.554 -6.363,-2.586 -6.592,-2.6 l -2.037,-0.123 5.236,-1.878 -0.685,1.047 c 0,0.025 0.012,0.061 0.021,0.101 0.02,0.039 0.053,0.108 0.114,0.198 0.06,0.097 0.144,0.219 0.234,0.341 l 1.523,2.122 c 0.35,-0.1 0.938,-0.273 1.698,-0.55 0.853,-0.302 1.576,-0.595 2.015,-0.781 l 0.024,-2.654 c 0,-0.202 -0.035,-0.364 -0.084,-0.5 C 1.4,-5.414 1.33,-5.5 1.27,-5.54 l -0.76,-0.457 4.619,-1.648 -0.631,-0.09 7.887,-4.202 0.224,0.219 c 0.235,0.238 0.584,0.67 0.957,1.17 0.389,0.507 0.805,1.104 1.178,1.676 l 0.244,0.382 -0.709,0.378 z"
             style="fill:#ffffff;fill-opacity:1;fill-rule:evenodd;stroke:none"
             id="path156" />
        </g>
        <g
           id="g158"
           transform="translate(327.2944,410.7748)">
          <path
             d="m 0,0 c 0,-0.993 -0.099,-1.789 -0.334,-2.47 -0.222,-0.642 -0.57,-1.198 -1.035,-1.727 -0.312,-0.133 -0.57,-0.219 -0.838,-0.273 -0.281,-0.065 -0.57,-0.087 -0.928,-0.09 h -0.007 c -1.202,-0.011 -2.229,0.482 -2.97,1.412 -0.76,0.966 -1.222,2.4 -1.239,4.246 v 0.009 c -0.007,0.903 0.085,1.687 0.299,2.393 0.205,0.654 0.519,1.251 0.964,1.802 0.295,0.131 0.555,0.216 0.808,0.275 0.288,0.059 0.586,0.081 0.958,0.085 1.303,0.018 2.365,-0.461 3.103,-1.38 C -0.463,3.327 -0.033,1.885 0,0.007 Z M 0.93,5.493 C -0.058,6.719 -1.543,7.491 -3.529,7.471 -5.364,7.455 -6.896,6.615 -7.982,5.343 -9.145,3.976 -9.806,2.1 -9.782,0.206 c 0.019,-1.808 0.568,-3.576 1.701,-4.815 1.004,-1.088 2.443,-1.779 4.361,-1.758 1.757,0.02 3.265,0.882 4.345,2.181 1.149,1.375 1.819,3.252 1.803,5.102 C 2.414,2.654 1.908,4.284 0.93,5.493"
             style="fill:#ffffff;fill-opacity:1;fill-rule:evenodd;stroke:none"
             id="path160" />
        </g>
        <g
           id="g162"
           transform="translate(234.5531,326.7687)">
          <path
             d="m 0,0 -3.94,0.137 c -0.412,0.017 -0.663,0.047 -0.808,0.068 v 0.018 0.356 c 0.04,0.932 0.342,1.522 0.801,1.878 0.448,0.35 1.055,0.472 1.671,0.453 h 0.04 C -1.522,2.875 -0.952,2.644 -0.568,2.213 -0.182,1.777 0.034,1.119 0,0.252 Z m 1.705,0.856 c 0.191,0.208 0.519,0.396 0.959,0.662 l 3.753,1.9 c 0.227,0.119 0.356,0.19 0.402,0.183 L 7.244,3.587 7.395,7.948 6.568,6.703 C 6.37,6.39 6.193,6.16 5.981,5.962 5.768,5.753 5.492,5.562 5.067,5.336 L 0.891,3.061 C 0.678,3.497 0.383,3.986 -0.043,4.422 -0.639,5.022 -1.47,5.494 -2.636,5.537 -3.735,5.573 -4.625,5.206 -5.271,4.415 -5.859,3.681 -6.194,2.601 -6.239,1.151 l -0.178,-4.782 0.808,1.059 c 0.088,0.111 0.179,0.201 0.275,0.258 0.101,0.058 0.229,0.083 0.428,0.08 L 5.571,-2.612 C 5.746,-2.623 5.885,-2.652 5.973,-2.724 6.082,-2.781 6.156,-2.89 6.24,-3.001 L 6.964,-4.112 7.154,1.194 6.353,0.133 C 6.264,0.025 6.172,-0.072 6.075,-0.126 5.967,-0.18 5.838,-0.216 5.654,-0.205 L 1.455,-0.058 1.47,0.32 c 0,0.223 0.086,0.392 0.235,0.536"
             style="fill:#ffffff;fill-opacity:1;fill-rule:evenodd;stroke:none"
             id="path164" />
        </g>
        <g
           id="g166"
           transform="translate(398.5933,287.1595)">
          <path
             d="M 0,0 C 0.168,0.338 0.318,0.637 0.473,0.894 L 0.617,1.187 3.902,-1.99 -0.687,-1.443 C -0.478,-0.998 -0.236,-0.473 0,0 m -6.984,-3.426 c 0.226,0.149 0.394,0.213 0.593,0.231 0.243,0.021 0.555,-0.018 1.032,-0.073 2.824,0.055 9.218,-1.093 12.404,-1.468 L 7.443,-2.277 6.908,-2.324 C 6.856,-2.328 6.787,-2.32 6.695,-2.303 6.606,-2.281 6.514,-2.25 6.43,-2.205 6.377,-2.182 6.293,-2.135 6.199,-2.072 6.148,-2.033 6.08,-1.983 6.027,-1.922 l -4.65,4.623 -2.684,2.887 c -0.224,0.24 -0.345,0.449 -0.412,0.642 -0.056,0.188 -0.07,0.383 -0.056,0.627 L -1.637,8.9 -4.146,3.928 -3.029,4.482 c 0.023,-0.008 0.058,-0.017 0.101,-0.035 0.028,-0.021 0.096,-0.076 0.18,-0.14 0.102,-0.077 0.205,-0.17 0.32,-0.266 L -0.516,2.256 C -0.66,1.924 -0.894,1.377 -1.279,0.637 -1.68,-0.158 -2.068,-0.842 -2.297,-1.256 l -2.652,0.303 c -0.186,0.023 -0.348,0.078 -0.469,0.146 -0.135,0.076 -0.207,0.158 -0.244,0.227 l -0.35,0.812 -1.972,-3.898 -2.752,-4.092 1.422,0.709 c 0.22,0.111 0.38,0.15 0.527,0.137 0.143,-0.012 0.295,-0.09 0.478,-0.205 l 4.065,-2.594 1.779,-1.191 -12.638,-1.497 c 3.482,-2.437 7.029,-4.835 10.476,-7.314 0.168,-0.119 0.281,-0.234 0.358,-0.361 0.062,-0.137 0.091,-0.309 0.091,-0.528 l -0.006,-1.412 2.967,4.434 -1.424,-0.713 c -0.22,-0.108 -0.388,-0.154 -0.527,-0.141 -0.135,0.012 -0.287,0.08 -0.461,0.2 l -4.832,3.093 -1.432,0.957 13.141,1.461 -2.121,1.192 -8.463,5.882 c -0.172,0.122 -0.287,0.233 -0.357,0.364 -0.069,0.138 -0.1,0.312 -0.1,0.535 l 0.025,0.81 z"
             style="fill:#ffffff;fill-opacity:1;fill-rule:evenodd;stroke:none"
             id="path168" />
        </g>
        <g
           id="g170"
           transform="translate(408.7982,344.8555)">
          <path
             d="m 0,0 -3.859,-2.54 c -0.129,0.464 -0.28,1.032 -0.403,1.543 -0.084,0.36 -0.152,0.698 -0.23,0.982 l -0.059,0.321 z m 5.949,-15.564 -0.662,-1.451 c -0.109,-0.23 -0.205,-0.36 -0.326,-0.439 -0.125,-0.079 -0.273,-0.122 -0.496,-0.137 l -5.686,-0.615 -1.716,-0.144 9.32,9.37 -2.397,-0.407 -10.289,-0.702 c -0.205,-0.021 -0.363,0 -0.511,0.051 -0.127,0.064 -0.256,0.176 -0.391,0.355 l -0.475,0.602 0.291,0.957 c 0.073,0.252 0.166,0.417 0.311,0.562 0.17,0.171 0.424,0.341 0.822,0.604 0.717,0.791 8.811,5.814 10.432,6.886 L 2.891,2.062 2.518,1.673 C 2.473,1.641 2.418,1.598 2.334,1.565 2.266,1.522 2.168,1.482 2.074,1.465 2.016,1.45 1.926,1.425 1.818,1.418 1.738,1.414 1.652,1.414 1.582,1.418 l -6.527,0.536 -3.92,0.479 c -0.32,0.039 -0.557,0.118 -0.723,0.226 -0.176,0.105 -0.312,0.255 -0.449,0.439 l -1.221,1.651 1.297,-5.426 0.502,1.159 c 0.016,0.003 0.043,0.011 0.09,0.025 0.041,0.012 0.129,0.012 0.238,0.018 0.106,0 0.252,-0.006 0.395,-0.006 l 2.625,-0.12 c 0.107,-0.352 0.273,-0.931 0.465,-1.734 0.205,-0.853 0.349,-1.633 0.439,-2.104 L -7.42,-4.907 C -7.59,-5.026 -7.74,-5.08 -7.892,-5.109 -8.027,-5.134 -8.15,-5.12 -8.205,-5.091 l -0.797,0.389 0.934,-3.926 0.433,-5.242 0.678,1.446 c 0.094,0.224 0.199,0.353 0.311,0.429 0.127,0.078 0.293,0.118 0.506,0.146 l 4.785,0.519 2.144,0.177 -8.91,-9.068 c 4.072,0.27 8.752,0.818 12.74,0.853 0.217,0.018 0.381,0 0.508,-0.061 0.137,-0.061 0.268,-0.18 0.402,-0.356 l 0.872,-1.109 z"
             style="fill:#ffffff;fill-opacity:1;fill-rule:evenodd;stroke:none"
             id="path172" />
        </g>
        <g
           id="g174"
           transform="translate(315.8938,242.1305)">
          <path
             d="m 0,0 c 0.103,0.021 0.182,0.029 0.26,0.029 0.093,0.004 0.201,0.004 0.344,0 C 1.377,-0.012 1.956,-0.356 2.334,-1 2.751,-1.67 2.931,-2.637 2.853,-3.793 2.826,-4.465 2.783,-4.729 2.744,-4.983 L 2.733,-5.034 C 2.557,-5.139 2.334,-5.225 2.084,-5.286 1.783,-5.35 1.467,-5.375 1.155,-5.366 0.506,-5.329 -0.082,-5.002 -0.462,-4.473 -0.844,-3.94 -1.016,-3.221 -0.973,-2.336 -0.906,-1.209 -0.354,-0.465 0,0 M 4.359,-0.551 C 3.697,0.521 2.642,1.127 1.301,1.201 1.225,1.205 1.146,1.205 1.06,1.205 c -1.04,0 -1.996,-0.373 -2.763,-1.082 -0.863,-0.789 -1.421,-1.914 -1.491,-3.012 -0.054,-1.123 0.228,-2.055 0.836,-2.768 0.631,-0.738 1.605,-1.213 2.608,-1.277 0.074,-0.004 0.148,-0.008 0.209,-0.008 0.421,0 0.84,0.069 1.249,0.205 0.229,0.076 0.458,0.178 0.69,0.299 -0.421,-1.15 -1.025,-2.06 -1.841,-2.769 -0.915,-0.817 -2.084,-1.375 -3.577,-1.696 l -0.59,-0.111 0.484,-0.35 c 0.111,-0.103 0.368,-0.175 0.513,-0.207 0.118,-0.029 0.352,-0.076 0.575,-0.076 l 0.092,-0.008 c 0.955,0 3.22,0.494 4.945,2.35 1.258,1.353 1.958,3.141 2.082,5.314 0.075,1.317 -0.181,2.541 -0.722,3.44"
             style="fill:#ffffff;fill-opacity:1;fill-rule:nonzero;stroke:none"
             id="path176" />
        </g>
        <g
           id="g178"
           transform="translate(339.7064,235.9855)">
          <path
             d="m 0,0 c -0.134,0.963 -0.494,1.701 -1.064,2.197 -0.44,0.379 -1.012,0.612 -1.67,0.684 0.355,0.359 0.625,0.717 0.824,1.084 0.287,0.56 0.389,1.137 0.313,1.752 C -1.711,6.525 -2.138,7.166 -2.84,7.57 -3.3,7.828 -3.875,7.961 -4.498,7.961 -4.689,7.961 -4.853,7.957 -5.027,7.936 -5.867,7.82 -6.568,7.502 -7.111,6.982 -7.787,6.346 -8.08,5.525 -8.129,4.971 L -8.195,4.176 -7.67,4.781 c 0.397,0.453 0.793,0.782 1.211,1 0.344,0.18 0.702,0.287 1.131,0.338 0.475,0.072 0.893,-0.021 1.166,-0.273 0.264,-0.215 0.432,-0.547 0.485,-0.965 L -3.658,4.832 C -3.519,3.5 -4.623,2.688 -5.896,1.748 l -1.442,-1.062 1.477,0.451 c 0.432,0.133 0.846,0.183 1.07,0.211 l 0.034,0.004 c 0.699,0.086 1.335,-0.069 1.781,-0.446 0.455,-0.379 0.756,-0.994 0.869,-1.777 0.062,-0.522 0.049,-1.016 -0.043,-1.461 -0.086,-0.355 -0.217,-0.633 -0.334,-0.857 -0.109,-0.061 -0.406,-0.219 -1.066,-0.301 -0.622,-0.08 -1.063,-0.043 -1.508,0.129 -0.528,0.222 -1.024,0.64 -1.565,1.324 l -0.468,0.59 -0.002,-0.762 c -0.02,-0.434 -0.008,-0.861 0.031,-1.203 l 0.017,-0.098 c 0.024,-0.168 0.055,-0.381 0.114,-0.59 0.062,-0.304 0.166,-0.578 0.312,-0.822 l 0.051,-0.072 0.092,-0.041 c 0.39,-0.108 0.681,-0.158 0.994,-0.172 0.086,-0.008 0.168,-0.014 0.262,-0.014 0.234,0 0.496,0.022 0.904,0.071 1.351,0.181 2.482,0.763 3.268,1.691 C -0.242,-2.498 0.151,-1.207 0,0"
             style="fill:#ffffff;fill-opacity:1;fill-rule:nonzero;stroke:none"
             id="path180" />
        </g>
        <g
           id="g182"
           transform="translate(330.8254,242.9896)">
          <path
             d="m 0,0 v 0.043 l -7.716,-0.32 -0.133,-0.01 -0.047,-0.166 c -0.106,-0.326 -0.183,-0.762 -0.224,-1.256 -0.075,-0.647 -0.09,-1.35 -0.083,-1.662 l 0.011,-0.676 0.515,0.582 c 0.461,0.533 0.736,0.842 1.047,1.037 0.306,0.201 0.67,0.287 1.334,0.326 l 3.382,0.135 c -0.332,-0.785 -1.246,-2.875 -2.293,-5.062 -0.894,-1.866 -1.646,-3.328 -2.232,-4.348 -0.1,-0.18 -0.205,-0.342 -0.338,-0.521 -0.139,-0.172 -0.906,-0.946 -0.914,-0.954 l -0.191,-0.193 2.947,0.41 0.453,1.057 c 0.029,0.064 0.057,0.133 0.088,0.213 0.029,0.078 0.064,0.166 0.109,0.261 0.34,0.832 1.254,3.098 2.135,5.29 l 0.658,1.634 c 0.526,1.299 0.928,2.41 1.119,2.957 l 0.143,0.393 0.146,0.346 H 0.02 l 0.146,0.441 z"
             style="fill:#ffffff;fill-opacity:1;fill-rule:nonzero;stroke:none"
             id="path184" />
        </g>
        <g
           id="g186"
           transform="translate(310.1555,231.6886)">
          <path
             d="m 0,0 c -0.579,0.094 -1.164,0.307 -1.604,0.58 -0.445,0.287 -0.58,0.535 -0.564,0.662 l 1.666,10.537 0.054,0.239 -5.704,-0.619 v -0.346 l 1.314,-0.025 c 0.615,-0.1 1.13,-0.352 1.448,-0.709 0.305,-0.317 0.438,-0.69 0.373,-1.053 L -4.219,1.572 C -4.244,1.461 -4.407,1.291 -4.793,1.154 -5.114,1.033 -5.539,0.961 -5.924,0.961 c -0.104,0 -0.183,0.004 -0.263,0.014 L -6.32,0.992 -6.413,0.889 C -6.496,0.795 -6.552,0.738 -6.611,0.695 -6.665,0.654 -6.741,0.619 -6.863,0.561 l -0.776,-0.364 2.938,-0.462 c 1.379,-0.223 2.765,-0.448 4.148,-0.659 l 0.098,-0.011 0.092,0.101 c 0.084,0.09 0.145,0.151 0.197,0.19 0.045,0.037 0.11,0.068 0.196,0.111 l 1.096,0.508 z"
             style="fill:#ffffff;fill-opacity:1;fill-rule:nonzero;stroke:none"
             id="path188" />
        </g>
        <g
           id="g190"
           transform="translate(399.8123,351.71)">
          <path
             d="M 0,0 C 1.474,0.622 1.666,2.094 1.861,3.555 2.078,5.242 2.303,6.926 4.185,7.717 5.051,8.081 6.111,8.124 7.09,7.631 7.888,7.228 8.611,6.483 9.123,5.278 9.355,4.727 9.517,4.177 9.601,3.638 9.691,3.108 9.709,2.587 9.64,2.076 L 9.594,1.791 9.32,1.723 C 8.887,1.601 8.506,1.564 8.123,1.594 7.752,1.622 7.402,1.705 6.982,1.838 l -0.57,0.18 0.365,0.471 C 7.142,2.976 7.369,3.468 7.459,3.946 7.531,4.418 7.48,4.892 7.279,5.353 7.152,5.666 6.982,5.9 6.879,6.044 6.672,6.105 6.467,6.142 6.262,6.131 6.01,6.127 5.736,6.066 5.424,5.94 4.467,5.53 4.275,4.296 4.09,2.961 3.826,1.147 3.545,-0.828 1.437,-1.713 c -0.914,-0.385 -2.133,-0.504 -3.273,0.072 -0.858,0.432 -1.674,1.259 -2.266,2.666 -0.205,0.5 -0.351,1.076 -0.42,1.63 -0.099,0.641 -0.099,1.263 -0.031,1.684 l 0.031,0.23 0.207,0.094 c 0.44,0.205 0.889,0.342 1.321,0.435 0.435,0.09 0.861,0.144 1.291,0.172 l 0.297,0.022 0.23,-0.565 -0.172,-0.194 C -1.885,3.954 -2.24,3.36 -2.383,2.748 -2.514,2.147 -2.453,1.5 -2.147,0.791 -2.065,0.575 -1.94,0.385 -1.819,0.212 -1.697,0.05 -1.586,-0.076 -1.492,-0.151 -1.279,-0.194 -1.02,-0.194 -0.778,-0.177 -0.504,-0.151 -0.221,-0.087 0,0"
             style="fill:#ffffff;fill-opacity:1;fill-rule:evenodd;stroke:none"
             id="path192" />
        </g>
        <g
           id="g194"
           transform="translate(393.1672,380.7778)">
          <path
             d="M 0,0 C 0.147,0.111 0.239,0.223 0.282,0.334 0.321,0.45 0.328,0.572 0.328,0.698 V 2 L 5.657,-5.462 5.307,-5.71 C 5.022,-5.922 4.532,-6.243 3.955,-6.548 3.569,-6.761 3.141,-6.951 2.727,-7.092 l -0.299,-0.093 -0.367,0.503 0.17,0.245 c 0.381,0.54 0.636,0.986 0.601,1.526 -0.047,0.586 -0.39,1.338 -1.203,2.482 -0.115,0.158 -0.205,0.284 -0.289,0.378 L 1.248,-2.101 C 1.112,-2.173 0.951,-2.267 0.774,-2.393 l -2.828,-2.018 1.359,-1.918 c 0.193,-0.255 0.383,-0.514 0.559,-0.73 0.181,-0.223 0.349,-0.425 0.525,-0.598 L 0.791,-8.081 0.266,-8.329 c -0.522,-0.241 -0.988,-0.17 -1.369,0.068 -0.334,0.198 -0.598,0.511 -0.817,0.806 l -1.48,2.087 -3.539,-2.529 c -0.078,-0.044 -0.108,-0.098 -0.119,-0.145 0,-0.036 0.019,-0.083 0.041,-0.125 l 0.588,-0.813 c 0.752,-1.083 1.435,-1.634 2.086,-1.864 0.638,-0.22 1.292,-0.133 2.015,0.072 l 0.281,0.082 0.434,-0.619 -0.334,-0.24 c -0.475,-0.335 -1.021,-0.677 -1.535,-0.954 -0.529,-0.302 -1.053,-0.547 -1.426,-0.68 l -0.295,-0.097 -5.365,7.523 1.24,-0.428 c 0.108,-0.043 0.235,-0.079 0.36,-0.072 0.109,0.011 0.263,0.058 0.445,0.195 z"
             style="fill:#ffffff;fill-opacity:1;fill-rule:evenodd;stroke:none"
             id="path196" />
        </g>
        <g
           id="g198"
           transform="translate(331.2834,404.9589)">
          <path
             d="M 0,0 C 0.205,0.081 0.355,0.174 0.453,0.291 0.546,0.399 0.607,0.549 0.646,0.757 L 2.914,10.813 3.212,13.219 9.533,1.606 9.875,3.299 10.916,8.93 c 0.05,0.209 0.05,0.376 0.011,0.509 -0.045,0.135 -0.146,0.277 -0.322,0.434 L 9.406,10.927 14.63,9.837 13.324,9.322 C 13.109,9.24 12.958,9.149 12.867,9.035 12.765,8.928 12.707,8.775 12.66,8.57 11.685,4.426 10.769,0.263 9.839,-3.892 L 3.691,7.243 3.255,5.142 2.38,0.41 C 2.343,0.194 2.33,0.021 2.38,-0.119 2.421,-0.252 2.517,-0.385 2.693,-0.542 l 1.205,-1.056 -5.223,1.087 z"
             style="fill:#ffffff;fill-opacity:1;fill-rule:evenodd;stroke:none"
             id="path200" />
        </g>
        <g
           id="g202"
           transform="translate(314.673,418.0282)">
          <path
             d="M 0,0 -0.982,-0.867 C -1.119,-0.98 -1.204,-1.084 -1.243,-1.194 -1.287,-1.308 -1.296,-1.448 -1.279,-1.631 l 1.055,-10.343 c 0.015,-0.185 0.062,-0.322 0.13,-0.419 0.054,-0.097 0.165,-0.183 0.315,-0.266 l 1.138,-0.655 -1.309,-0.133 -3.946,-0.403 0.985,0.871 c 0.133,0.111 0.223,0.215 0.263,0.322 0.036,0.117 0.053,0.257 0.036,0.44 l -1.066,10.344 c -0.013,0.184 -0.053,0.321 -0.122,0.414 -0.057,0.098 -0.169,0.184 -0.313,0.277 l -1.148,0.648 z"
             style="fill:#ffffff;fill-opacity:1;fill-rule:evenodd;stroke:none"
             id="path204" />
        </g>
        <g
           id="g206"
           transform="translate(298.4476,413.0976)">
          <path
             d="M 0,0 C 0.848,1.614 2.307,2.792 4.219,3.283 4.772,3.427 5.355,3.494 5.913,3.515 6.583,3.54 7.22,3.484 7.724,3.407 L 8.058,3.357 8.074,3.029 C 8.119,2.612 8.058,2.216 7.953,1.858 7.839,1.421 7.641,1.038 7.421,0.723 L 7.177,0.36 6.818,0.621 C 6.32,1 5.809,1.216 5.319,1.313 4.721,1.434 4.14,1.382 3.65,1.259 3.296,1.167 2.967,1.038 2.7,0.903 2.405,0.754 2.153,0.588 1.986,0.453 1.689,-0.237 1.508,-0.989 1.439,-1.801 1.394,-2.583 1.459,-3.416 1.683,-4.296 l 0.006,-0.018 c 0.382,-1.479 1.076,-2.677 2.01,-3.422 0.921,-0.719 2.077,-1.005 3.409,-0.663 0.685,0.172 1.18,0.413 1.505,0.852 0.326,0.463 0.51,1.164 0.549,2.24 l 0.008,0.313 0.733,0.191 0.101,-0.414 c 0.13,-0.504 0.254,-1.152 0.329,-1.754 0.074,-0.587 0.121,-1.128 0.1,-1.481 L 10.407,-8.649 10.242,-8.765 C 9.817,-9.074 9.367,-9.356 8.85,-9.61 8.327,-9.869 7.724,-10.105 6.948,-10.297 l -0.045,-0.018 c -1.774,-0.438 -3.379,-0.204 -4.656,0.604 -1.277,0.802 -2.23,2.153 -2.711,3.958 l -0.015,0.048 C -1.027,-3.559 -0.816,-1.576 0,0"
             style="fill:#ffffff;fill-opacity:1;fill-rule:evenodd;stroke:none"
             id="path208" />
        </g>
        <g
           id="g210"
           transform="translate(281.3968,400.3651)">
          <path
             d="M 0,0 -3.172,4.773 C -3.288,4.952 -3.386,5.083 -3.517,5.153 -3.646,5.22 -3.814,5.25 -4.062,5.234 L -5.648,5.159 -1.135,8.012 -1.727,6.731 C -1.812,6.524 -1.86,6.36 -1.844,6.208 -1.835,6.062 -1.781,5.909 -1.669,5.729 0.615,2.242 2.792,-1.594 4.967,-5.184 l -12.166,3.723 1.149,-1.81 2.672,-4.011 c 0.122,-0.18 0.227,-0.306 0.364,-0.381 0.121,-0.073 0.282,-0.098 0.526,-0.083 l 1.593,0.075 -4.5,-2.846 0.586,1.288 c 0.09,0.198 0.13,0.367 0.12,0.522 0,0.148 -0.07,0.299 -0.171,0.471 L -10.236,0.572 -11.69,2.503 0.917,-1.45 Z"
             style="fill:#ffffff;fill-opacity:1;fill-rule:evenodd;stroke:none"
             id="path212" />
        </g>
        <g
           id="g214"
           transform="translate(232.5834,353.1631)">
          <path
             d="m 0,0 0.447,-1.231 c 0.064,-0.168 0.121,-0.284 0.215,-0.363 0.09,-0.083 0.219,-0.137 0.396,-0.194 L 11.1,-4.497 c 0.175,-0.051 0.312,-0.068 0.435,-0.04 0.115,0.029 0.231,0.097 0.358,0.209 l 1.022,0.82 -0.344,-1.26 -1.036,-3.828 -0.465,1.231 c -0.051,0.166 -0.122,0.277 -0.207,0.356 -0.088,0.079 -0.217,0.144 -0.393,0.191 L 0.432,-4.106 C 0.263,-4.059 0.111,-4.044 0,-4.059 c -0.13,-0.032 -0.236,-0.1 -0.363,-0.208 l -1.03,-0.838 z"
             style="fill:#ffffff;fill-opacity:1;fill-rule:evenodd;stroke:none"
             id="path216" />
        </g>
        <g
           id="g218"
           transform="translate(229.4095,341.3076)">
          <path
             d="m 0,0 c 0.092,0.587 0.252,1.145 0.464,1.645 0.207,0.503 0.48,0.953 0.799,1.349 L 1.446,3.213 1.715,3.131 C 2.153,2.994 2.497,2.821 2.803,2.602 3.096,2.386 3.364,2.119 3.645,1.781 L 4.033,1.332 3.471,1.119 C 2.898,0.899 2.45,0.608 2.123,0.245 1.81,-0.107 1.608,-0.543 1.529,-1.039 1.477,-1.378 1.493,-1.669 1.506,-1.838 c 0.139,-0.158 0.293,-0.295 0.473,-0.396 0.219,-0.14 0.488,-0.234 0.804,-0.285 1.045,-0.161 1.852,0.796 2.726,1.822 1.18,1.399 2.468,2.925 4.719,2.561 0.991,-0.166 2.077,-0.702 2.728,-1.788 0.511,-0.835 0.758,-1.971 0.521,-3.465 -0.085,-0.536 -0.274,-1.101 -0.502,-1.608 -0.267,-0.594 -0.587,-1.126 -0.868,-1.45 l -0.144,-0.173 -0.232,0.025 c -0.475,0.058 -0.933,0.177 -1.351,0.335 -0.417,0.151 -0.813,0.342 -1.18,0.529 l -0.266,0.143 0.099,0.606 0.257,0.071 c 0.761,0.205 1.371,0.518 1.812,0.965 0.437,0.438 0.717,1.028 0.847,1.795 0.036,0.219 0.036,0.457 0.022,0.658 -0.018,0.205 -0.054,0.371 -0.077,0.482 -0.169,0.148 -0.38,0.284 -0.594,0.396 -0.25,0.13 -0.519,0.219 -0.75,0.256 C 8.955,-0.097 8.013,-1.248 7.084,-2.378 5.998,-3.698 4.924,-5.005 2.907,-4.685 1.979,-4.533 1.058,-4.008 0.479,-3.072 0.022,-2.309 -0.205,-1.295 0,0"
             style="fill:#ffffff;fill-opacity:1;fill-rule:evenodd;stroke:none"
             id="path220" />
        </g>
        <g
           id="g222"
           transform="translate(228.1176,319.3994)">
          <path
             d="M 0,0 0.41,0.036 C 0.767,0.076 1.36,0.102 2.001,0.066 2.449,0.044 2.922,0 3.339,-0.093 L 3.65,-0.165 3.699,-0.787 3.422,-0.906 C 2.821,-1.173 2.39,-1.432 2.145,-1.914 1.879,-2.439 1.796,-3.263 1.907,-4.666 1.925,-4.864 1.947,-5.022 1.963,-5.138 l 0.106,-0.003 c 0.152,0 0.334,0 0.545,0.01 l 3.473,0.296 -0.193,2.339 C 5.867,-2.18 5.836,-1.871 5.79,-1.579 5.745,-1.302 5.699,-1.036 5.635,-0.806 l -0.128,0.58 0.585,-0.065 c 0.572,-0.054 0.923,-0.352 1.142,-0.745 0.185,-0.349 0.253,-0.748 0.289,-1.118 l 0.213,-2.548 4.33,0.367 c 0.092,0 0.146,0.025 0.175,0.058 0.018,0.039 0.032,0.082 0.032,0.136 l -0.091,1.004 C 12.073,-1.82 11.776,-1 11.33,-0.478 10.902,0.036 10.294,0.303 9.571,0.497 L 9.281,0.572 9.222,1.324 9.648,1.36 c 0.564,0.047 1.193,0.051 1.787,0.033 0.615,-0.026 1.194,-0.069 1.582,-0.148 l 0.312,-0.064 0.769,-9.206 -0.853,1 c -0.074,0.093 -0.166,0.179 -0.264,0.244 -0.109,0.051 -0.26,0.078 -0.496,0.064 L 2.069,-7.584 C 1.879,-7.605 1.756,-7.652 1.659,-7.728 1.565,-7.799 1.482,-7.9 1.429,-8.008 L 0.753,-9.135 Z"
             style="fill:#ffffff;fill-opacity:1;fill-rule:evenodd;stroke:none"
             id="path224" />
        </g>
        <g
           id="g226"
           transform="translate(234.8412,291.6165)">
          <path
             d="m 0,0 -0.386,-1.26 -1.467,4.379 -1.6,5.315 0.422,0.101 c 0.179,0.043 0.316,0.09 0.445,0.145 0.13,0.056 0.25,0.132 0.397,0.228 l 6.893,4.621 -3.508,0.41 -3.774,0.381 c -0.13,0.014 -0.281,0.026 -0.42,0.014 C -3.146,14.332 -3.285,14.309 -3.352,14.303 -3.477,14.266 -3.575,14.195 -3.65,14.068 -3.744,13.91 -3.802,13.691 -3.811,13.42 l -0.104,-3.078 -1.564,6.431 0.778,-0.338 c 0.485,-0.209 0.972,-0.277 1.453,-0.337 4.345,-0.42 8.927,-1.206 13.279,-1.789 L -1.117,6.541 C -1.268,6.426 -1.452,6.275 -1.596,6.078 -1.732,5.887 -1.826,5.639 -1.826,5.301 L -1.837,3.598 -0.995,2.98 c 0.139,-0.105 0.269,-0.162 0.372,-0.183 0.123,-0.016 0.265,0.01 0.434,0.06 L 9.68,6.146 c 0.176,0.049 0.298,0.121 0.381,0.207 0.076,0.084 0.142,0.204 0.199,0.375 l 0.387,1.248 0.411,-1.244 1.255,-3.756 -1.064,0.766 c -0.141,0.108 -0.26,0.166 -0.38,0.18 -0.117,0.017 -0.254,0 -0.43,-0.057 L 0.573,0.58 C 0.404,0.517 0.275,0.449 0.185,0.367 0.109,0.289 0.056,0.162 0,0"
             style="fill:#ffffff;fill-opacity:1;fill-rule:evenodd;stroke:none"
             id="path228" />
        </g>
        <g
           id="g230"
           transform="translate(239.4477,276.6595)">
          <path
             d="M 0,0 5.25,12.133 3.697,11.363 -1.381,8.707 C -1.56,8.613 -1.698,8.517 -1.78,8.402 -1.863,8.279 -1.917,8.121 -1.917,7.881 l -0.094,-1.598 -2.375,4.789 1.222,-0.717 c 0.196,-0.115 0.354,-0.179 0.498,-0.187 0.145,0 0.313,0.043 0.497,0.133 3.819,1.871 7.699,3.648 11.544,5.463 L 4.411,4.058 l 1.918,0.954 4.27,2.234 c 0.183,0.105 0.335,0.205 0.418,0.32 0.083,0.119 0.119,0.282 0.135,0.52 L 11.24,9.68 13.597,4.904 12.388,5.627 c -0.2,0.105 -0.36,0.166 -0.511,0.178 C 11.74,5.808 11.58,5.764 11.388,5.672 L 2.069,1.25 Z"
             style="fill:#ffffff;fill-opacity:1;fill-rule:evenodd;stroke:none"
             id="path232" />
        </g>
        <g
           id="g234"
           transform="translate(258.2962,272.8955)">
          <path
             d="m 0,0 c -0.192,-1.179 -0.967,-2.248 -2.367,-3.23 l -5.82,-4.063 C -8.342,-7.4 -8.446,-7.502 -8.5,-7.605 -8.555,-7.713 -8.576,-7.849 -8.583,-8.019 l -0.019,-1.309 -3.027,4.342 1.243,-0.436 c 0.165,-0.064 0.295,-0.086 0.41,-0.068 0.119,0.016 0.242,0.076 0.396,0.18 l 5.836,4.078 c 0.817,0.564 1.396,1.222 1.572,1.961 0.137,0.636 0,1.347 -0.562,2.154 -0.578,0.813 -1.287,1.223 -2.032,1.311 -0.851,0.099 -1.773,-0.206 -2.646,-0.807 -1.79,-1.256 -2.815,-1.982 -3.585,-2.541 -0.738,-0.543 -1.188,-0.906 -1.835,-1.44 -0.166,-0.128 -0.272,-0.24 -0.331,-0.343 -0.058,-0.106 -0.089,-0.231 -0.089,-0.393 l -0.014,-1.314 -2.714,3.896 1.232,-0.437 c 0.16,-0.059 0.289,-0.077 0.394,-0.059 0.131,0.016 0.275,0.084 0.45,0.188 0.716,0.421 1.179,0.712 1.903,1.197 0.791,0.523 1.748,1.195 3.47,2.4 l 0.008,0.008 c 1.348,0.939 2.715,1.4 3.988,1.309 1.302,-0.096 2.472,-0.77 3.398,-2.086 C -0.2,2.422 0.197,1.174 0,0"
             style="fill:#ffffff;fill-opacity:1;fill-rule:evenodd;stroke:none"
             id="path236" />
        </g>
        <g
           id="g238"
           transform="translate(292.6204,240.2166)">
          <path
             d="m 0,0 c -0.147,-0.389 -0.701,-0.799 -1.301,-1.073 -0.595,-0.273 -1.273,-0.422 -1.66,-0.281 -0.372,0.137 -0.788,0.699 -1.064,1.293 -0.274,0.596 -0.425,1.279 -0.29,1.658 0.145,0.389 0.709,0.803 1.307,1.076 0.587,0.278 1.274,0.424 1.649,0.28 0.384,-0.147 0.801,-0.702 1.07,-1.299 C -0.016,1.06 0.135,0.38 0,0"
             style="fill:#ffffff;fill-opacity:1;fill-rule:evenodd;stroke:none"
             id="path240" />
        </g>
        <g
           id="g242"
           transform="translate(354.1563,240.3786)">
          <path
             d="m 0,0 c -0.247,-0.608 -0.633,-1.18 -1.014,-1.338 -0.371,-0.157 -1.065,-0.037 -1.664,0.205 -0.608,0.248 -1.186,0.633 -1.35,1.013 -0.158,0.381 -0.035,1.055 0.205,1.663 0.246,0.611 0.643,1.191 1.006,1.353 0.389,0.154 1.072,0.039 1.674,-0.209 C -0.534,2.439 0.052,2.054 0.205,1.672 0.367,1.291 0.25,0.607 0,0"
             style="fill:#ffffff;fill-opacity:1;fill-rule:evenodd;stroke:none"
             id="path244" />
        </g>
        <g
           id="g246"
           transform="translate(410.9722,297.2004)">
          <path
             d="m 0,0 -0.402,1.248 c -0.037,0.17 -0.106,0.293 -0.184,0.371 -0.082,0.084 -0.211,0.152 -0.379,0.213 l -6.767,2.223 c -0.895,0.285 -1.717,0.371 -2.387,0.127 -0.656,-0.243 -1.178,-0.807 -1.51,-1.793 V 2.371 c -0.316,-0.986 -0.195,-1.824 0.231,-2.492 0.441,-0.692 1.207,-1.217 2.167,-1.526 2.086,-0.687 3.282,-1.08 4.182,-1.345 0.879,-0.272 1.436,-0.414 2.26,-0.619 0.205,-0.047 0.355,-0.065 0.475,-0.051 0.109,0.017 0.232,0.064 0.367,0.166 l 1.056,0.777 -1.482,-4.514 -0.389,1.25 c -0.051,0.165 -0.115,0.278 -0.195,0.352 -0.094,0.098 -0.231,0.162 -0.414,0.246 -1.551,0.639 -2.068,0.813 -6.11,2.141 l -0.082,0.031 c -1.568,0.533 -2.753,1.371 -3.416,2.461 -0.658,1.084 -0.806,2.393 -0.314,3.883 0.51,1.56 1.271,2.623 2.328,3.177 1.051,0.557 2.385,0.575 4.004,0.043 l 6.748,-2.22 C -0.039,4.074 0.092,4.055 0.223,4.07 0.344,4.088 0.449,4.148 0.594,4.254 l 1.06,0.779 z"
             style="fill:#ffffff;fill-opacity:1;fill-rule:evenodd;stroke:none"
             id="path248" />
        </g>
        <g
           id="g250"
           transform="translate(412.9432,304.0404)">
          <path
             d="m 0,0 -0.578,1.177 c -0.082,0.161 -0.166,0.27 -0.258,0.338 -0.09,0.075 -0.221,0.121 -0.412,0.147 l -9.2,1.523 c -1.4,0.229 -2.32,0.864 -2.877,1.701 C -14,5.9 -14.119,7.189 -13.922,8.361 l 0.068,0.422 0.82,-0.141 0.024,-0.316 c 0.074,-0.697 0.312,-1.295 0.76,-1.756 0.47,-0.467 1.177,-0.809 2.222,-0.982 l 9.176,-1.551 c 0.176,-0.026 0.326,-0.026 0.432,0.004 0.115,0.035 0.22,0.119 0.353,0.24 l 0.922,0.934 z"
             style="fill:#ffffff;fill-opacity:1;fill-rule:evenodd;stroke:none"
             id="path252" />
        </g>
        <g
           id="g254"
           transform="translate(315.1438,251.3275)">
          <path
             d="m 0,0 h 12.706 c 2.146,0.189 4.279,0.459 6.369,0.838 H -6.379 C -4.285,0.459 -2.153,0.189 0,0"
             style="fill:#000000;fill-opacity:1;fill-rule:nonzero;stroke:none"
             id="path256" />
        </g>
        <g
           id="g258"
           transform="translate(293.5774,256.6475)">
          <path
             d="m 0,0 h 55.829 c 0.769,0.324 1.537,0.666 2.289,1.012 H -2.297 C -1.536,0.666 -0.768,0.324 0,0"
             style="fill:#000000;fill-opacity:1;fill-rule:nonzero;stroke:none"
             id="path260" />
        </g>
        <g
           id="g262"
           transform="translate(283.3216,261.9585)">
          <path
             d="m 0,0 h 76.34 c 0.627,0.396 1.237,0.791 1.852,1.199 H -1.858 C -1.241,0.791 -0.622,0.396 0,0"
             style="fill:#000000;fill-opacity:1;fill-rule:nonzero;stroke:none"
             id="path264" />
        </g>
        <g
           id="g266"
           transform="translate(275.8958,267.2805)">
          <path
             d="m 0,0 h 91.196 c 0.547,0.449 1.098,0.91 1.635,1.373 H -1.636 C -1.096,0.91 -0.557,0.449 0,0"
             style="fill:#000000;fill-opacity:1;fill-rule:nonzero;stroke:none"
             id="path268" />
        </g>
        <g
           id="g270"
           transform="translate(270.0667,272.6045)">
          <path
             d="m 0,0 h 102.853 c 0.502,0.504 0.996,1.022 1.485,1.543 H -1.482 C -0.997,1.022 -0.511,0.504 0,0"
             style="fill:#000000;fill-opacity:1;fill-rule:nonzero;stroke:none"
             id="path272" />
        </g>
        <g
           id="g274"
           transform="translate(265.3177,277.9265)">
          <path
             d="m 0,0 h 112.35 c 0.457,0.565 0.907,1.141 1.348,1.719 H -1.346 C -0.912,1.141 -0.455,0.565 0,0"
             style="fill:#000000;fill-opacity:1;fill-rule:nonzero;stroke:none"
             id="path276" />
        </g>
        <g
           id="g278"
           transform="translate(261.4173,283.2415)">
          <path
             d="m 0,0 h 120.153 c 0.421,0.633 0.832,1.258 1.226,1.902 H -1.236 C -0.833,1.258 -0.423,0.633 0,0"
             style="fill:#000000;fill-opacity:1;fill-rule:nonzero;stroke:none"
             id="path280" />
        </g>
        <g
           id="g282"
           transform="translate(258.1878,288.5574)">
          <path
             d="m 0,0 h 126.608 c 0.373,0.688 0.738,1.387 1.09,2.08 H -1.096 C -0.739,1.387 -0.381,0.688 0,0"
             style="fill:#000000;fill-opacity:1;fill-rule:nonzero;stroke:none"
             id="path284" />
        </g>
        <g
           id="g286"
           transform="translate(255.5491,293.8765)">
          <path
             d="m 0,0 h 131.896 c 0.32,0.744 0.65,1.5 0.953,2.256 H -0.955 C -0.649,1.5 -0.327,0.744 0,0"
             style="fill:#000000;fill-opacity:1;fill-rule:nonzero;stroke:none"
             id="path288" />
        </g>
        <g
           id="g290"
           transform="translate(253.431,299.1944)">
          <path
             d="m 0,0 h 136.125 c 0.273,0.809 0.553,1.623 0.803,2.436 H -0.815 C -0.562,1.623 -0.274,0.809 0,0"
             style="fill:#000000;fill-opacity:1;fill-rule:nonzero;stroke:none"
             id="path292" />
        </g>
        <g
           id="g294"
           transform="translate(251.7894,304.5144)">
          <path
             d="m 0,0 h 139.41 c 0.234,0.868 0.453,1.735 0.642,2.61 H -0.655 C -0.448,1.735 -0.229,0.868 0,0"
             style="fill:#000000;fill-opacity:1;fill-rule:nonzero;stroke:none"
             id="path296" />
        </g>
        <g
           id="g298"
           transform="translate(250.5784,309.8294)">
          <path
             d="m 0,0 h 141.822 c 0.181,0.929 0.424,2.148 0.56,3.088 H -0.466 C -0.327,2.148 -0.177,0.929 0,0"
             style="fill:#000000;fill-opacity:1;fill-rule:nonzero;stroke:none"
             id="path300" />
        </g>
      </g>
    </g>
  </g>
</svg>
