<?xml version="1.0" encoding="UTF-8" standalone="no"?>
<!-- Created with Inkscape (http://www.inkscape.org/) -->

<svg
   width="538.64935mm"
   height="56.640003mm"
   viewBox="0 0 538.64935 56.640003"
   version="1.1"
   id="svg5"
   inkscape:version="1.2.2 (b0a8486541, 2022-12-01)"
   sodipodi:docname="ubc-logos.svg"
   xml:space="preserve"
   xmlns:inkscape="http://www.inkscape.org/namespaces/inkscape"
   xmlns:sodipodi="http://sodipodi.sourceforge.net/DTD/sodipodi-0.dtd"
   xmlns="http://www.w3.org/2000/svg"
   xmlns:svg="http://www.w3.org/2000/svg"><sodipodi:namedview
     id="namedview7"
     pagecolor="#ffffff"
     bordercolor="#000000"
     borderopacity="0.25"
     inkscape:showpageshadow="2"
     inkscape:pageopacity="0.0"
     inkscape:pagecheckerboard="0"
     inkscape:deskcolor="#d1d1d1"
     inkscape:document-units="mm"
     showgrid="false"
     inkscape:zoom="0.35355339"
     inkscape:cx="1251.579"
     inkscape:cy="-239.00209"
     inkscape:window-width="1920"
     inkscape:window-height="1011"
     inkscape:window-x="0"
     inkscape:window-y="0"
     inkscape:window-maximized="1"
     inkscape:current-layer="layer1" /><defs
     id="defs2" /><g
     inkscape:label="Layer 1"
     inkscape:groupmode="layer"
     id="layer1"
     transform="translate(587.86967,-77.033428)"><path
       style="fill:#14a7e0;fill-opacity:1;stroke-width:0.0846667"
       d="m -178.72106,109.43508 c -2.4701,-1.85359 -4.48454,-3.1278 -6.85494,-4.33601 -4.54795,-2.31811 -9.35864,-3.72935 -14.77434,-4.33411 -1.66953,-0.18644 -6.69049,-0.21187 -8.29733,-0.042 -3.76979,0.39846 -6.72958,1.2083 -13.208,3.61393 -6.6836,2.48182 -9.386,3.22696 -12.50955,3.44932 -2.81655,0.2005 -6.06614,-0.22813 -9.87004,-1.30191 -0.64383,-0.18174 -2.91078,-0.9041 -5.03767,-1.60524 -8.39422,-2.76721 -11.03431,-3.33352 -15.50874,-3.32666 -5.24538,0.008 -10.16959,1.18048 -16.84867,4.01164 -0.62865,0.26647 -1.15709,0.47254 -1.17431,0.45791 -0.11696,-0.0993 2.54538,-4.1386 3.72462,-5.65097 4.21386,-5.404259 9.49763,-8.184219 15.55548,-8.184219 3.01487,0 5.37009,0.4662 11.18888,2.21479 5.67971,1.70679 8.75276,2.40904 12.40367,2.83448 1.75783,0.20483 5.64909,0.20571 7.18663,0.002 2.97006,-0.39425 5.6805,-1.09538 8.92502,-2.30869 1.95291,-0.73031 3.63264,-1.44702 7.45207,-3.17969 4.7416,-2.15101 6.36819,-2.84031 8.65194,-3.66647 10.16088,-3.67576 21.49013,-3.84118 31.60047,-0.46141 4.71489,1.57613 9.53338,4.02866 14.41586,7.33741 0.65194,0.4418 1.23576,0.85072 1.29739,0.9087 0.12551,0.11808 0.33934,-0.0979 -2.73672,2.76419 -4.20526,3.912749 -6.26849,5.737939 -8.56247,7.574569 -1.66552,1.33349 -4.26583,3.23182 -5.53758,4.04268 -0.21263,0.13557 -0.22715,0.12759 -1.48167,-0.81382 z"
       id="path580" /><path
       style="fill:#85a645;fill-opacity:1;stroke-width:0.0846667"
       d="m -150.27044,101.60168 c -2.0837,-1.785239 -3.8948,-3.276459 -5.41823,-4.461269 -0.88477,-0.68811 -1.62003,-1.28008 -1.63392,-1.3155 -0.029,-0.0739 1.13604,-1.10216 2.73458,-2.41351 7.30156,-5.98978 14.38746,-9.29123 21.92867,-10.21696 1.29367,-0.15881 4.93144,-0.12934 6.223,0.0504 6.02344,0.83828 11.51932,3.41216 16.93725,7.93224 1.03593,0.86426 4.51027,4.21642 4.66114,4.49722 0.066,0.12284 -0.0105,0.11322 -0.53722,-0.0676 -8.00081,-2.74614 -17.70988,-3.19046 -26.35284,-1.20599 -5.79187,1.32985 -10.81645,3.50546 -15.9781,6.918449 l -1.63342,1.08004 z"
       id="path582" /><path
       style="fill:#85a645;fill-opacity:1;stroke-width:0.0846667"
       d="m -130.41567,112.24683 c -4.13833,-0.41037 -8.07188,-1.93248 -12.37195,-4.7874 -1.41704,-0.9408 -5.04816,-3.70409 -5.06381,-3.85357 -0.007,-0.0707 2.31493,-1.59692 3.59276,-2.36115 1.34074,-0.80184 4.42277,-2.312319 6.01133,-2.946089 5.62665,-2.24481 11.37678,-3.33702 17.56833,-3.33702 4.7948,0 9.03242,0.60789 13.4361,1.92742 0.89684,0.26873 3.15321,1.04076 3.23219,1.10591 0.0172,0.0142 -0.13184,0.28409 -0.33122,0.59977 -2.05937,3.260789 -5.32081,6.620849 -8.59007,8.849799 -3.68963,2.51557 -7.74081,4.09727 -11.99057,4.68149 -1.16536,0.1602 -4.38249,0.23098 -5.49309,0.12084 z"
       id="path578" /><path
       style="fill:#0f6363;fill-opacity:1;stroke-width:0.0846667"
       d="m -172.71094,112.80634 c -0.32831,-0.0596 -0.82361,-0.17369 -1.10067,-0.25345 -0.53955,-0.15532 -2.15795,-0.88485 -2.14986,-0.9691 0.003,-0.0279 0.698,-0.53514 1.54517,-1.12721 3.4995,-2.44572 6.45687,-4.91702 11.53096,-9.63577 1.1176,-1.039339 2.50046,-2.321409 3.07303,-2.849059 l 1.04103,-0.95936 0.85914,0.65064 c 2.16789,1.64176 7.00713,5.643169 7.00713,5.793959 0,0.0634 -2.95523,2.15472 -4.61433,3.2654 -1.94598,1.30273 -4.33817,2.7233 -5.9321,3.52269 -2.42146,1.21441 -5.46218,2.24468 -7.55681,2.56042 -0.99021,0.14926 -2.8833,0.14969 -3.70269,8.4e-4 z"
       id="path576" /><path
       style="fill:#0f6363;fill-opacity:1;stroke-width:0.0846667"
       d="m -56.501675,121.30477 c -14.356275,-0.91062 -27.985601,-6.52808 -39.899166,-16.44484 -0.779988,-0.64926 -1.418168,-1.19458 -1.418168,-1.21183 0,-0.0172 10.934701,-0.0314 24.299334,-0.0314 h 24.299333 v 8.83779 8.83779 l -0.1905,0.0511 c -0.269613,0.0723 -5.819512,0.042 -7.090833,-0.0386 z"
       id="path574" /><path
       style="fill:#1e59a8;fill-opacity:1;stroke-width:0.0846667"
       d="m -232.22734,125.15004 c -12.66069,-0.36327 -25.36346,-3.15139 -37.04166,-8.13025 -4.42095,-1.88481 -6.97721,-3.33305 -12.5593,-7.11541 l -2.01831,-1.36758 0.66876,-0.33625 c 1.52688,-0.7677 5.61737,-2.38886 7.8183,-3.09859 4.2515,-1.37096 8.69438,-2.00055 12.31355,-1.74492 3.56047,0.25149 6.03681,0.85128 12.94886,3.13633 4.01972,1.32888 5.85162,1.87578 7.65296,2.28473 3.98172,0.90395 7.34973,1.06578 10.59784,0.50922 2.54114,-0.43542 5.05841,-1.21416 10.668,-3.30026 6.06689,-2.25614 8.75339,-3.00971 12.27667,-3.44358 1.91702,-0.23608 6.68811,-0.2119 8.79899,0.0446 6.54306,0.79503 12.32929,2.88183 17.57467,6.3383 1.25264,0.82543 3.42264,2.40718 3.42646,2.49761 0.003,0.0694 -2.62356,1.64689 -4.06146,2.4393 -9.42257,5.19267 -21.73505,9.02651 -33.82433,10.53216 -5.13834,0.63995 -10.3105,0.89605 -15.24,0.7546 z"
       id="path572" /><path
       style="fill:#0f6363;fill-opacity:1;stroke-width:0.0846667"
       d="m -144.00467,126.58994 c -7.85425,-0.37261 -15.35298,-2.79771 -21.73572,-7.02935 -1.61774,-1.07254 -5.74895,-4.20423 -6.5825,-4.98992 -0.10596,-0.0999 0.0434,-0.10933 1.016,-0.0643 3.23985,0.14984 6.86608,-0.77946 10.79171,-2.76562 2.46594,-1.24763 5.18021,-2.94889 9.09192,-5.69865 1.04211,-0.73256 1.92127,-1.33982 1.9537,-1.34946 0.0324,-0.01 0.68475,0.48129 1.4496,1.09096 4.64442,3.70212 7.97892,5.6836 11.75696,6.9864 5.75817,1.98562 12.24249,1.75255 18.33074,-0.65888 4.8385,-1.91643 9.35291,-5.23425 12.74427,-9.36628 0.29534,-0.35985 0.55306,-0.6382 0.57271,-0.61856 0.0629,0.0629 -1.38154,2.84631 -2.11356,4.07283 -5.16127,8.64791 -13.27215,15.25564 -22.5015,18.33142 -4.65444,1.55114 -9.94477,2.28858 -14.77433,2.05946 z"
       id="path570" /><path
       style="fill:#0f6363;fill-opacity:1;stroke-width:0.0846667"
       d="m -83.27198,132.50321 c -6.152201,-6.90442 -11.522726,-15.77376 -15.799409,-26.09248 -0.937751,-2.26261 -1.037591,-2.52775 -0.967541,-2.56954 0.0335,-0.02 0.556221,0.40259 1.161591,0.93907 11.214953,9.93869 24.364456,16.04826 38.39633,17.83986 2.656248,0.33915 4.081145,0.41752 7.683433,0.42258 l 3.577107,0.005 5.9e-5,5.31283 6.8e-5,5.31284 h -16.504471 -16.504471 l -1.042696,-1.17019 z"
       id="path568" /><path
       style="fill:#0f6363;fill-opacity:1;stroke-width:0.0846667"
       d="m -101.54434,118.88495 c 0,-8.13364 0.0147,-14.77257 0.0327,-14.75316 0.018,0.0194 0.28158,0.66392 0.58575,1.43227 4.190481,10.58576 9.782566,20.14012 16.003407,27.34263 l 0.662203,0.7667 h -8.642036 -8.642044 z"
       id="path566" /><path
       style="fill:#0f6363;fill-opacity:1;stroke-width:0.0846667"
       d="m -284.509,121.95332 v -11.72007 l 2.43416,1.63312 c 5.62081,3.77109 7.97954,5.06706 13.11535,7.20608 9.56579,3.98406 20.50915,6.64633 30.93249,7.52517 5.55955,0.46875 11.60777,0.46911 17.10266,10e-4 8.18171,-0.69697 16.39577,-2.39079 24.17234,-4.98459 6.38848,-2.13082 9.98686,-3.78652 15.70566,-7.22655 1.04775,-0.63025 2.22307,-1.35091 2.61182,-1.60147 0.60115,-0.38745 0.72772,-0.43949 0.84666,-0.34809 0.0769,0.0591 0.4256,0.35899 0.77485,0.6664 2.82632,2.48773 7.29823,6.02332 9.652,7.63109 5.6028,3.82704 12.49414,6.43396 19.304,7.30251 3.82915,0.48838 8.15622,0.45671 11.85334,-0.0867 7.8583,-1.15511 14.96103,-4.3656 21.25603,-9.60788 1.39036,-1.15786 4.22186,-3.99285 5.36124,-5.36785 2.34771,-2.83324 4.05132,-5.41211 5.61538,-8.50037 l 0.78735,-1.55463 v 9.9015 c 0,5.44582 -0.0253,12.36523 -0.0562,15.37646 l -0.0562,5.47496 h -90.70644 -90.70643 z"
       id="path564" /><path
       style="fill:#0f6363;fill-opacity:1;stroke-width:0.0846667"
       d="m -313.07675,132.71639 c 4.24105,-2.67594 8.67756,-5.75408 12.26015,-8.50635 2.64935,-2.03531 5.30758,-4.46092 8.00301,-7.30263 1.24411,-1.31163 6.23244,-6.74933 6.71427,-7.31913 0.13748,-0.16258 0.1455,0.4847 0.14816,11.95662 l 0.003,12.12849 h -14.32257 -14.32257 z"
       id="path562" /><path
       style="fill:#0f6363;fill-opacity:1;stroke-width:0.0846667"
       d="m -411.128,133.5842 c 0.58206,-0.1694 3.59294,-0.67718 5.207,-0.87815 4.74779,-0.59116 7.19719,-0.67189 18.288,-0.60278 9.37722,0.0584 11.86929,0.0168 15.32466,-0.25616 7.88435,-0.6228 14.67029,-2.83656 22.94467,-7.48518 1.76911,-0.9939 3.49324,-2.02484 7.366,-4.40449 5.98015,-3.67456 8.21413,-4.9591 11.33554,-6.51794 3.62982,-1.81274 6.0335,-2.76619 9.51565,-3.7745 l 1.58953,-0.46027 h 16.0423 c 8.82328,0 16.04231,0.0195 16.04231,0.0432 0,0.0238 -0.99691,1.13819 -2.21537,2.4765 -7.09082,7.78834 -9.33327,9.84052 -15.94563,14.59267 -3.24131,2.32946 -8.36157,5.70908 -10.80244,7.13014 l -0.38843,0.22614 -47.2789,-0.008 c -27.09018,-0.004 -47.17043,-0.0392 -47.02489,-0.0816 z"
       id="path560" /><path
       style="fill:#0f6363;fill-opacity:1;stroke-width:0.0846667"
       d="m -475.84741,133.1389 c 12.83378,-9.64217 29.55721,-15.67713 47.65907,-17.19866 6.34085,-0.53297 11.87395,-0.47111 22.26734,0.24894 11.28716,0.78198 12.35532,0.83291 17.56833,0.83766 5.23357,0.005 7.73699,-0.14138 11.59933,-0.67714 6.51882,-0.90425 13.16571,-3.01459 20.2695,-6.43541 l 1.4735,-0.70956 15.7985,0.004 15.7985,0.004 -1.05833,0.3661 c -3.80849,1.31743 -7.93537,3.31004 -12.86933,6.21378 -0.90805,0.53441 -3.46075,2.0839 -5.67267,3.44331 -6.82467,4.19436 -9.7211,5.80809 -13.335,7.42951 -5.24246,2.35209 -10.55146,3.71681 -16.04433,4.12431 -3.33559,0.24746 -5.36522,0.2791 -14.39334,0.2244 -5.90327,-0.0358 -10.01844,-0.024 -11.51466,0.0329 -6.27765,0.23893 -10.81177,0.85846 -16.13937,2.20525 l -1.66425,0.4207 h -30.2271 -30.2271 z"
       id="path558" /><path
       style="fill:#0f6363;fill-opacity:1;stroke-width:0.0846667"
       d="m -587.86967,121.43906 v -12.23433 h 115.11845 c 63.31514,0 115.10122,0.0172 115.08018,0.0383 -0.0211,0.021 -0.68463,0.32943 -1.47462,0.6853 -6.84465,3.0833 -12.74181,4.79294 -19.09718,5.53645 -2.81437,0.32925 -4.73156,0.43922 -8.50423,0.48782 -5.10104,0.0657 -7.62436,-0.0392 -17.7346,-0.73694 -8.69636,-0.60021 -9.32966,-0.6271 -14.859,-0.63099 -5.17545,-0.004 -6.13372,0.0331 -9.94833,0.38126 -8.42764,0.76921 -16.91167,2.61063 -24.638,5.34756 -8.6812,3.07519 -16.17937,7.05508 -23.19866,12.31342 l -1.397,1.04652 h -54.6735 -54.67351 z"
       id="path554" /><path
       d="m -479.77644,92.065261 v -3.10431 l 0.48683,0.0254 c 0.45584,0.0238 0.48848,0.0396 0.51276,0.2493 l 0.0259,0.223901 0.43951,-0.295781 c 0.41004,-0.27592 0.47659,-0.29368 0.99198,-0.26455 0.66509,0.0376 0.99111,0.23696 1.32832,0.812371 0.19401,0.33105 0.2353,0.51372 0.26389,1.167569 0.042,0.96007 -0.11258,1.55248 -0.53333,2.04403 -0.42602,0.49771 -0.88374,0.65453 -1.73922,0.5959 l -0.67601,-0.0463 v 0.749 c 0,0.41195 -0.0286,0.766491 -0.0635,0.787871 -0.0349,0.0214 -0.28257,0.0661 -0.55033,0.0994 l -0.48683,0.0605 z m 2.42545,0.42073 c 0.5812,-0.40708 0.6416,-2.071099 0.0892,-2.457999 -0.31901,-0.22344 -0.69991,-0.16005 -1.07511,0.17893 l -0.33891,0.30618 v 0.950879 c 0,0.90243 0.01,0.95556 0.1905,1.04275 0.27874,0.13443 0.92975,0.12253 1.13429,-0.0207 z m -77.4112,0.93508 c -2.53829,-0.48125 -4.31057,-1.91919 -4.98094,-4.041259 -0.32884,-1.040951 -0.38198,-2.047561 -0.38198,-7.235051 v -4.85936 h 1.90085 1.90085 l 0.0271,5.2705 c 0.0268,5.21005 0.0293,5.27701 0.21812,5.83843 0.47535,1.413181 1.57594,2.129261 3.27677,2.131971 1.9136,0.003 3.11759,-0.89709 3.42855,-2.563291 0.0511,-0.27361 0.0851,-2.50064 0.0851,-5.56683 v -5.11078 h 1.90844 1.90843 l -0.0272,5.56683 c -0.0304,6.23762 -0.004,5.95405 -0.6672,7.279981 -0.77943,1.559309 -2.2045,2.631629 -4.21649,3.172769 -0.8332,0.2241 -3.44561,0.29333 -4.38044,0.11609 z m 33.45675,0.0605 c -0.62995,-0.0855 -1.66679,-0.37528 -2.30165,-0.64328 -1.84135,-0.7773 -3.29846,-2.2703 -4.03588,-4.13528 -0.43819,-1.10819 -0.51445,-1.59923 -0.5175,-3.33192 -0.003,-1.89491 0.13907,-2.63028 0.7542,-3.89467 1.16798,-2.400749 3.28224,-3.88824 6.14316,-4.32204 1.61765,-0.24529 3.53982,-0.1116 4.99568,0.34746 0.88305,0.27844 1.69299,0.67743 1.69299,0.83401 0,0.15073 -0.51391,3.13236 -0.5453,3.16375 -0.0131,0.0131 -0.30456,-0.14931 -0.64772,-0.36088 -1.18161,-0.72852 -2.38084,-1.08324 -3.67532,-1.08715 -2.49458,-0.008 -4.15482,1.26125 -4.74499,3.62618 -0.3295,1.320401 -0.14105,3.20544 0.44192,4.42018 0.31016,0.64631 1.26503,1.603051 1.90756,1.911311 1.791,0.859239 4.19489,0.639889 6.39425,-0.58345 0.29007,-0.161341 0.55587,-0.293451 0.59067,-0.293561 0.11285,-3.4e-4 0.59586,2.96746 0.49595,3.04738 -0.50201,0.40158 -2.25982,1.03103 -3.42811,1.22756 -0.73968,0.12442 -2.82636,0.16853 -3.51991,0.0744 z m 17.907,-0.78682 -0.29405,-0.84667 h -1.18982 -1.18981 l -0.25587,0.78317 -0.25588,0.78317 -0.65783,0.0249 c -0.63932,0.0241 -0.6562,0.0197 -0.60009,-0.15706 0.0318,-0.10005 0.56417,-1.52093 1.18314,-3.157519 l 1.12541,-2.975601 h 0.70287 0.70288 l 1.15872,3.070431 c 0.6373,1.688729 1.13471,3.085239 1.10536,3.103339 -0.0613,0.0378 -1.01207,0.21856 -1.14956,0.21856 -0.0503,0 -0.22374,-0.381 -0.38547,-0.84667 z m -0.67734,-1.89485 c 0,-0.0521 -0.7689,-2.20427 -0.79784,-2.23322 -0.0234,-0.0234 -0.81082,2.14248 -0.81082,2.2303 0,0.0193 0.36195,0.0351 0.80433,0.0351 0.44238,0 0.80433,-0.0145 0.80433,-0.0322 z m 4.00217,2.61599 c -0.53596,-0.23299 -0.61483,-0.50185 -0.61519,-2.09697 v -1.418169 h -0.33866 -0.33867 v -0.46567 -0.465661 h 0.33867 0.33866 v -0.71294 c 0,-0.80018 -0.0829,-0.71002 0.78317,-0.85153 l 0.3175,-0.0519 v 0.80817 0.80817 h 0.46183 0.46183 l 0.0508,0.3175 c 0.028,0.174621 0.0642,0.384171 0.0806,0.465661 0.0258,0.12879 -0.0412,0.14817 -0.51266,0.14817 h -0.54241 v 1.124159 c 0,1.33161 0.0587,1.47653 0.61464,1.51688 l 0.35778,0.026 0.0594,0.41796 c 0.0327,0.22987 0.0402,0.44894 0.0168,0.48683 -0.0706,0.11413 -1.24029,0.0709 -1.53375,-0.0566 z m 11.50071,-0.0976 c -0.81321,-0.40523 -1.16036,-1.1375 -1.09278,-2.30503 0.0749,-1.293879 0.76927,-2.04853 1.94607,-2.11502 0.75301,-0.0426 1.21453,0.12867 1.66549,0.617901 1.03518,1.123049 0.68957,3.269669 -0.62266,3.867299 -0.52588,0.2395 -1.34097,0.2115 -1.89612,-0.0652 z m 1.49064,-0.87462 c 0.70608,-0.43051 0.64866,-2.134049 -0.0847,-2.513289 -0.2999,-0.15508 -0.76625,-0.10648 -0.99894,0.1041 -0.27492,0.24879 -0.44445,0.834949 -0.39107,1.352109 0.1056,1.02317 0.76047,1.49258 1.47471,1.05708 z m 3.32648,0.97787 c -0.87002,-0.26953 -0.78873,-0.18973 -0.72713,-0.71384 0.0304,-0.25848 0.0673,-0.48198 0.082,-0.49668 0.0147,-0.0147 0.2443,0.0729 0.51024,0.19464 0.26594,0.12175 0.70663,0.24159 0.97931,0.26632 0.4546,0.0412 0.51461,0.0261 0.72245,-0.18171 0.20773,-0.20773 0.21643,-0.24224 0.10414,-0.41326 -0.0798,-0.12151 -0.38524,-0.27609 -0.87558,-0.4431 -1.26647,-0.43135 -1.47291,-0.6255 -1.47241,-1.384759 0,-0.61216 0.19971,-0.943531 0.71851,-1.194681 0.35197,-0.17038 0.48416,-0.18693 1.17244,-0.14677 0.42666,0.0249 0.90248,0.0918 1.0574,0.14869 0.28129,0.1033 0.28158,0.104 0.22316,0.537391 -0.0322,0.23867 -0.0739,0.46006 -0.0928,0.49198 -0.0188,0.0319 -0.19709,-0.014 -0.39608,-0.10203 -0.73437,-0.32484 -1.40976,-0.32071 -1.5866,0.01 -0.14671,0.27414 0.0729,0.43757 0.95543,0.710919 0.61076,0.18918 0.85487,0.31243 1.10204,0.5564 0.29644,0.29259 0.3175,0.34692 0.3175,0.81882 0,0.58935 -0.20548,0.96882 -0.67223,1.24142 -0.37322,0.21796 -1.56107,0.27425 -2.12177,0.10054 z m 15.57867,-0.0566 c -0.79357,-0.35977 -1.11109,-0.87802 -1.16753,-1.90562 -0.0939,-1.710299 0.75418,-2.66772 2.26629,-2.55834 0.98326,0.0711 1.59271,0.772691 1.67542,1.92868 l 0.0423,0.59087 -1.42939,0.0233 -1.42939,0.0233 0.03,0.21167 c 0.13308,0.93854 1.02284,1.2272 2.15281,0.69842 l 0.54941,-0.2571 0.0572,0.43125 c 0.0511,0.3855 0.0367,0.44669 -0.1357,0.57676 -0.56371,0.42521 -1.92387,0.54859 -2.61141,0.23689 z m 1.69147,-2.72339 c -0.001,-0.0582 -0.0735,-0.263569 -0.16103,-0.456349 -0.11957,-0.26335 -0.2319,-0.37454 -0.4516,-0.44705 -0.50799,-0.16765 -0.89002,0.0968 -1.07586,0.74485 l -0.0758,0.264389 h 0.88309 c 0.65102,0 0.8826,-0.0278 0.88123,-0.10584 z m 9.51074,2.69786 c -0.50644,-0.24073 -0.87917,-0.69735 -1.04098,-1.27527 -0.14268,-0.50964 -0.0763,-1.606419 0.1208,-1.994089 0.24766,-0.48723 0.71962,-0.916051 1.17449,-1.067141 0.51815,-0.1721 1.49554,-0.12775 1.90855,0.0866 l 0.28408,0.14743 -0.0594,0.480051 c -0.0327,0.26403 -0.0728,0.49394 -0.0891,0.51091 -0.0164,0.017 -0.19616,-0.0497 -0.39956,-0.14816 -1.03112,-0.49916 -1.85245,0.003 -1.85245,1.133299 0,0.56693 0.20786,1.02388 0.54509,1.19826 0.36168,0.18703 1.1649,0.12048 1.49546,-0.12391 l 0.24997,-0.18482 0.0456,0.27491 c 0.12149,0.73317 0.11135,0.77181 -0.24965,0.95104 -0.23158,0.11498 -0.55283,0.17631 -1.016,0.19396 -0.57794,0.022 -0.74182,-0.005 -1.11679,-0.18308 z m 6.76383,0.0746 c -0.78303,-0.21882 -0.80496,-0.24209 -0.73742,-0.78261 0.0885,-0.7081 0.0844,-0.70441 0.53538,-0.48735 0.8655,0.4166 1.72995,0.47043 2.14586,0.13364 0.23055,-0.18668 0.26968,-0.74021 0.0695,-0.98393 -0.0688,-0.0838 -0.52197,-0.33849 -1.00707,-0.56602 -1.02143,-0.479099 -1.24874,-0.639669 -1.50941,-1.066309 -0.14194,-0.23231 -0.19018,-0.441691 -0.1905,-0.826921 -8.5e-4,-0.69598 0.2537,-1.17548 0.80405,-1.51615 0.39248,-0.24295 0.45112,-0.25386 1.34809,-0.25082 0.69628,0.002 1.02233,0.0406 1.26617,0.14841 l 0.32841,0.14522 -0.0595,0.52598 c -0.0327,0.28929 -0.0772,0.55454 -0.0987,0.58943 -0.0216,0.0349 -0.18068,-0.01 -0.35357,-0.0988 -0.98177,-0.5069 -1.85961,-0.40952 -2.0186,0.22392 -0.10043,0.40018 0.16153,0.62882 1.35438,1.182091 1.14512,0.53113 1.49286,0.962669 1.49286,1.852619 0,0.79132 -0.31278,1.32951 -0.97367,1.67538 -0.44279,0.23173 -1.73561,0.28691 -2.39629,0.10227 z m 5.51284,-0.0746 c -0.50644,-0.24073 -0.87917,-0.69735 -1.04098,-1.27527 -0.14269,-0.50964 -0.0763,-1.606419 0.12079,-1.994089 0.24766,-0.48723 0.71963,-0.916051 1.1745,-1.067141 0.51814,-0.1721 1.49554,-0.12775 1.90855,0.0866 l 0.28407,0.14743 -0.0594,0.480051 c -0.0327,0.26403 -0.0728,0.49394 -0.0892,0.51091 -0.0164,0.017 -0.19617,-0.0497 -0.39956,-0.14816 -1.03112,-0.49916 -1.85246,0.003 -1.85246,1.133299 0,0.56693 0.20787,1.02388 0.5451,1.19826 0.36167,0.18703 1.1649,0.12048 1.49545,-0.12391 l 0.24997,-0.18482 0.0456,0.27491 c 0.1215,0.73317 0.11136,0.77181 -0.24965,0.95104 -0.23158,0.11498 -0.55283,0.17631 -1.016,0.19396 -0.57794,0.022 -0.74181,-0.005 -1.11678,-0.18308 z m 7.25512,0.0255 c -0.79357,-0.35977 -1.11109,-0.87802 -1.16753,-1.90562 -0.0939,-1.710299 0.75418,-2.66772 2.26629,-2.55834 0.98326,0.0711 1.59271,0.772691 1.67542,1.92868 l 0.0423,0.59087 -1.42939,0.0233 -1.4294,0.0233 0.03,0.21167 c 0.13308,0.93854 1.02284,1.2272 2.15281,0.69842 l 0.54941,-0.2571 0.0572,0.43125 c 0.0511,0.3855 0.0367,0.44669 -0.1357,0.57676 -0.56371,0.42521 -1.92387,0.54859 -2.61141,0.23689 z m 1.69147,-2.72339 c -10e-4,-0.0582 -0.0735,-0.263569 -0.16103,-0.456349 -0.11957,-0.26335 -0.2319,-0.37454 -0.4516,-0.44705 -0.50799,-0.16765 -0.89002,0.0968 -1.07586,0.74485 l -0.0758,0.264389 h 0.88309 c 0.65102,0 0.8826,-0.0278 0.88123,-0.10584 z m 8.49474,2.69786 c -0.50644,-0.24073 -0.87917,-0.69735 -1.04098,-1.27527 -0.14268,-0.50964 -0.0763,-1.606419 0.1208,-1.994089 0.24766,-0.48723 0.71962,-0.916051 1.17449,-1.067141 0.51815,-0.1721 1.49554,-0.12775 1.90855,0.0866 l 0.28408,0.14743 -0.0594,0.480051 c -0.0327,0.26403 -0.0728,0.49394 -0.0892,0.51091 -0.0164,0.017 -0.19616,-0.0497 -0.39956,-0.14816 -1.03112,-0.49916 -1.85245,0.003 -1.85245,1.133299 0,0.56693 0.20786,1.02388 0.54509,1.19826 0.36168,0.18703 1.1649,0.12048 1.49546,-0.12391 l 0.24997,-0.18482 0.0456,0.27491 c 0.12149,0.73317 0.11135,0.77181 -0.24965,0.95104 -0.23158,0.11498 -0.55283,0.17631 -1.016,0.19396 -0.57795,0.022 -0.74182,-0.005 -1.11679,-0.18308 z m 4.54579,0.0255 c -0.79357,-0.35977 -1.11109,-0.87802 -1.16753,-1.90562 -0.0939,-1.710299 0.75418,-2.66772 2.26629,-2.55834 0.98326,0.0711 1.59271,0.772691 1.67542,1.92868 l 0.0423,0.59087 -1.42939,0.0233 -1.4294,0.0233 0.03,0.21167 c 0.13308,0.93854 1.02284,1.2272 2.15281,0.69842 l 0.54941,-0.2571 0.0572,0.43125 c 0.0511,0.3855 0.0367,0.44669 -0.1357,0.57676 -0.56371,0.42521 -1.92387,0.54859 -2.61141,0.23689 z m 1.69147,-2.72339 c -0.001,-0.0582 -0.0735,-0.263569 -0.16103,-0.456349 -0.11957,-0.26335 -0.2319,-0.37454 -0.4516,-0.44705 -0.50799,-0.16765 -0.89002,0.0968 -1.07586,0.74485 l -0.0758,0.264389 h 0.88309 c 0.65102,0 0.8826,-0.0278 0.88123,-0.10584 z m 2.88053,2.77998 c -0.87002,-0.26953 -0.78873,-0.18973 -0.72714,-0.71384 0.0304,-0.25848 0.0673,-0.48198 0.082,-0.49668 0.0147,-0.0147 0.24431,0.0729 0.51024,0.19464 0.26594,0.12175 0.70663,0.24159 0.97932,0.26632 0.4546,0.0412 0.5146,0.0261 0.72244,-0.18171 0.20774,-0.20773 0.21644,-0.24224 0.10415,-0.41326 -0.0798,-0.12151 -0.38524,-0.27609 -0.87558,-0.4431 -1.26648,-0.43135 -1.47291,-0.6255 -1.47241,-1.384759 0,-0.61216 0.1997,-0.943531 0.7185,-1.194681 0.35198,-0.17038 0.48416,-0.18693 1.17244,-0.14677 0.42666,0.0249 0.90249,0.0918 1.05741,0.14869 0.28128,0.1033 0.28158,0.104 0.22315,0.537391 -0.0322,0.23867 -0.0739,0.46006 -0.0928,0.49198 -0.0188,0.0319 -0.19708,-0.014 -0.39608,-0.10203 -0.73437,-0.32484 -1.40976,-0.32071 -1.58659,0.01 -0.14672,0.27414 0.0729,0.43757 0.95543,0.710919 0.61075,0.18918 0.85487,0.31243 1.10204,0.5564 0.29643,0.29259 0.3175,0.34692 0.3175,0.81882 0,0.58935 -0.20549,0.96882 -0.67224,1.24142 -0.37321,0.21796 -1.56107,0.27425 -2.12176,0.10054 z m -79.16333,-2.2127 v -2.24789 l 0.48683,0.0254 c 0.46086,0.024 0.48826,0.0378 0.51362,0.25822 0.0147,0.12806 0.0422,0.232841 0.061,0.232841 0.0188,0 0.20528,-0.120571 0.41433,-0.267921 0.66002,-0.46522 1.60051,-0.42669 2.00063,0.082 l 0.1687,0.214471 0.2306,-0.170481 c 0.66031,-0.48819 1.42372,-0.60021 1.94098,-0.28481 0.4986,0.30402 0.53328,0.469091 0.53328,2.53922 v 1.86687 h -0.55034 -0.55033 l -0.001,-1.54517 c -10e-4,-1.778119 -0.0466,-1.954289 -0.51162,-1.993679 -0.22292,-0.0189 -0.38658,0.0395 -0.65422,0.23336 l -0.35692,0.25855 v 1.523469 1.52347 h -0.55033 -0.55033 l -10e-4,-1.54517 c -8.5e-4,-1.0722 -0.0339,-1.609949 -0.10796,-1.756829 -0.18015,-0.35736 -0.69687,-0.33505 -1.15427,0.0498 l -0.26053,0.21921 v 1.516479 1.51647 h -0.55033 -0.55034 v -2.24789 z m 22.88015,-0.985099 0.0222,-3.232981 0.42333,-0.10971 c 0.23284,-0.0604 0.47096,-0.11045 0.52917,-0.11135 0.0803,-0.001 0.10583,0.32452 0.10583,1.35129 v 1.352921 l 0.38234,-0.269501 c 0.30904,-0.21783 0.48504,-0.27603 0.91809,-0.3036 0.63577,-0.0405 0.99379,0.10848 1.243,0.517201 0.15082,0.24735 0.1653,0.43583 0.16559,2.154889 v 1.88383 h -0.5453 -0.5453 l -0.0262,-1.65798 c -0.0244,-1.542749 -0.038,-1.666759 -0.19553,-1.784439 -0.23717,-0.17714 -0.74447,-0.0947 -1.10383,0.17943 l -0.29317,0.22361 v 1.519689 1.51969 h -0.55134 -0.55134 l 0.0222,-3.232989 z m 10.30918,0.985099 v -2.24789 l 0.48683,0.0254 c 0.47242,0.0246 0.48757,0.0329 0.51164,0.27939 0.0455,0.466341 0.0877,0.488041 0.35564,0.182891 0.27218,-0.309981 0.72189,-0.563891 0.99876,-0.563891 0.1283,0 0.18127,0.0754 0.22293,0.3175 0.0301,0.174631 0.0747,0.418911 0.0992,0.542851 0.0415,0.21021 0.0142,0.23417 -0.40733,0.35671 -0.25427,0.0739 -0.60821,0.26519 -0.80941,0.43741 l -0.35756,0.306059 v 1.30574 1.30573 h -0.55034 -0.55033 z m 3.64067,0.004 v -2.24366 h 0.55033 0.55033 v 2.24366 2.24367 h -0.55033 -0.55033 z m 19.47333,0 v -2.24366 h 0.55033 0.55033 v 2.24366 2.24367 h -0.55033 -0.55033 z m 7.62,-0.004 v -2.24789 l 0.48683,0.0254 c 0.46087,0.024 0.48827,0.0378 0.51362,0.25822 0.0272,0.236411 0.13135,0.303291 0.22821,0.146561 0.0293,-0.0475 0.23986,-0.180801 0.46785,-0.296331 0.75731,-0.38376 1.60198,-0.24358 1.94758,0.323221 0.15082,0.24735 0.16531,0.43583 0.16559,2.154889 v 1.88383 h -0.5453 -0.5453 l -0.0262,-1.65798 c -0.0244,-1.542749 -0.038,-1.666759 -0.19553,-1.784439 -0.23717,-0.17714 -0.74446,-0.0947 -1.10383,0.17943 l -0.29317,0.22361 v 1.519689 1.51969 h -0.55033 -0.55034 v -2.24789 z m -108.966,-5.92244 v -8.001 h 3.07139 c 3.93726,0 4.83235,0.10597 6.12905,0.72562 1.54521,0.7384 2.31802,2.07025 2.20733,3.80405 -0.0727,1.13816 -0.67032,2.12158 -1.64248,2.702631 l -0.41376,0.2473 0.64317,0.32191 c 0.77964,0.390229 1.50845,1.114449 1.83821,1.826679 0.18993,0.4102 0.23197,0.63535 0.25957,1.39019 0.0372,1.01807 -0.0547,1.563741 -0.38054,2.25925 -0.31866,0.68016 -1.17443,1.49822 -1.9775,1.89035 -1.47094,0.71825 -2.3643,0.83288 -6.49594,0.83352 l -3.2385,5e-4 z m 7.06967,5.038681 c 0.62333,-0.23985 1.17102,-0.75677 1.30211,-1.228961 0.25286,-0.91084 -0.0375,-1.80858 -0.72632,-2.2455 -0.66622,-0.42259 -1.12138,-0.52268 -2.58663,-0.56881 l -1.3335,-0.042 v 2.17889 2.17888 l 1.41817,-0.0385 c 1.21973,-0.0331 1.48925,-0.0659 1.92617,-0.233999 z m -0.59267,-6.815981 c 0.51358,-0.17605 0.9335,-0.4809 1.14778,-0.83325 0.37898,-0.62318 0.27448,-1.55265 -0.22961,-2.04221 -0.4432,-0.43043 -0.98925,-0.5698 -2.421,-0.6179 l -1.24884,-0.042 v 1.88498 1.88499 l 1.16417,-0.0448 c 0.77353,-0.0297 1.30621,-0.0935 1.5875,-0.18988 z m 75.48033,4.61363 c -0.40841,-0.40841 -0.076,-1.10066 0.52848,-1.10066 0.5718,0 0.8697,0.70186 0.46089,1.0859 -0.25607,0.24058 -0.75609,0.24803 -0.98937,0.0148 z m 19.47333,0 c -0.40841,-0.40841 -0.076,-1.10066 0.52849,-1.10066 0.57179,0 0.86969,0.70186 0.46089,1.0859 -0.25608,0.24058 -0.7561,0.24803 -0.98938,0.0148 z m -43.75925,-3.100639 c -0.21796,-0.0951 -0.26823,-0.15674 -0.21896,-0.26826 0.0352,-0.0796 0.15789,-0.41146 0.2727,-0.737431 0.18226,-0.5175 0.19874,-0.65441 0.12989,-1.0795 l -0.0788,-0.48683 h 0.61823 0.61823 l -0.002,0.61383 c -0.002,0.70299 -0.16948,1.154201 -0.64197,1.730801 -0.3329,0.40627 -0.30698,0.39782 -0.69742,0.22739 z m -17.3448,-1.298601 c -0.14908,-0.0909 -0.33419,-0.28736 -0.41136,-0.43659 -0.19457,-0.37625 -0.13464,-1.13959 0.11723,-1.49331 0.26362,-0.37022 0.95125,-0.68062 1.77319,-0.80042 0.78168,-0.11393 0.87633,-0.23414 0.48918,-0.62129 -0.16933,-0.16933 -0.29085,-0.2073 -0.65617,-0.20505 -0.24659,0.002 -0.65738,0.0749 -0.91287,0.1631 -0.51892,0.17912 -0.58179,0.1465 -0.60522,-0.31403 -0.008,-0.151339 -0.0178,-0.322589 -0.0225,-0.380549 -0.0136,-0.16943 0.94396,-0.38847 1.73043,-0.39584 0.59024,-0.006 0.79222,0.0282 1.10066,0.18372 0.63053,0.31796 0.67382,0.48384 0.67398,2.582339 v 1.79916 h -0.508 c -0.50519,0 -0.508,-10e-4 -0.508,-0.24782 v -0.24782 l -0.48186,0.29015 c -0.40796,0.24567 -0.56051,0.29011 -0.99483,0.28984 -0.35933,-2.5e-4 -0.59417,-0.0498 -0.78404,-0.16559 z m 1.56184,-0.81099 c 0.51775,-0.21632 0.61422,-0.35086 0.61422,-0.85656 0,-0.51539 -0.004,-0.51711 -0.68314,-0.3173 -0.67979,0.19992 -0.97775,0.5162 -0.87438,0.92811 0.0899,0.35807 0.44996,0.45189 0.9433,0.24575 z m 7.83372,0.85137 c -0.53596,-0.23299 -0.61484,-0.50185 -0.61519,-2.09697 v -1.41817 h -0.33867 -0.33866 v -0.465659 -0.46567 h 0.33866 0.33867 v -0.712941 c 0,-0.80018 -0.0829,-0.71002 0.78317,-0.85152 l 0.3175,-0.0519 v 0.80817 0.808171 h 0.46183 0.46183 l 0.0508,0.3175 c 0.028,0.17462 0.0642,0.384169 0.0806,0.465669 0.0258,0.12878 -0.0412,0.14816 -0.51267,0.14816 h -0.5424 v 1.12416 c 0,1.33161 0.0587,1.47653 0.61464,1.51688 l 0.35778,0.026 0.0594,0.41796 c 0.0326,0.22987 0.0402,0.44895 0.0168,0.48683 -0.0706,0.11413 -1.2403,0.0709 -1.53375,-0.0566 z m 14.8653,0.0123 c -0.97617,-0.36365 -1.55704,-0.97118 -1.85925,-1.94456 -0.26959,-0.86833 -0.20781,-2.013409 0.14976,-2.775679 0.51013,-1.087521 1.28964,-1.606981 2.50423,-1.668781 2.05031,-0.10432 3.27411,1.21995 3.18334,3.44472 -0.0282,0.69144 -0.0726,0.89782 -0.29486,1.37173 -0.30962,0.66005 -0.71746,1.0932 -1.32335,1.40548 -0.37006,0.19073 -0.57208,0.23207 -1.24601,0.25502 -0.53341,0.0182 -0.90858,-0.0115 -1.11386,-0.0879 z m 1.7912,-1.14656 c 0.86454,-0.44319 1.19482,-2.07081 0.65811,-3.243149 -0.24139,-0.52727 -0.54036,-0.777621 -1.09558,-0.917431 -0.76882,-0.19359 -1.4818,0.16534 -1.83823,0.925401 -0.18801,0.40092 -0.22197,0.589909 -0.22197,1.235329 0,0.64542 0.034,0.83442 0.22197,1.23533 0.4279,0.91247 1.3698,1.2289 2.2757,0.76452 z m 4.42887,1.05784 c -0.50644,-0.24073 -0.87917,-0.69735 -1.04097,-1.27526 -0.14269,-0.50965 -0.0763,-1.60643 0.12079,-1.99409 0.24766,-0.487239 0.71963,-0.916059 1.1745,-1.067149 0.51814,-0.1721 1.49553,-0.12775 1.90855,0.0866 l 0.28407,0.14743 -0.0594,0.480049 c -0.0327,0.26403 -0.0728,0.49394 -0.0892,0.51091 -0.0163,0.017 -0.19616,-0.0497 -0.39955,-0.14816 -1.03113,-0.499159 -1.85246,0.003 -1.85246,1.13331 0,0.56692 0.20786,1.02387 0.54509,1.19825 0.36168,0.18703 1.16491,0.12048 1.49546,-0.12391 l 0.24997,-0.18481 0.0456,0.2749 c 0.1215,0.73317 0.11135,0.77181 -0.24965,0.95104 -0.23158,0.11498 -0.55283,0.17631 -1.016,0.19396 -0.57794,0.022 -0.74181,-0.005 -1.11679,-0.18308 z m 4.63046,0.0255 c -0.79357,-0.35977 -1.11109,-0.87801 -1.16753,-1.90562 -0.0939,-1.7103 0.75418,-2.667719 2.26629,-2.558339 0.98326,0.0711 1.59271,0.772689 1.67542,1.928679 l 0.0423,0.59087 -1.42939,0.0233 -1.42939,0.0233 0.03,0.21166 c 0.13308,0.93854 1.02284,1.2272 2.15281,0.69842 l 0.54941,-0.2571 0.0572,0.43125 c 0.0511,0.3855 0.0367,0.44669 -0.1357,0.57676 -0.56371,0.42521 -1.92387,0.54859 -2.61141,0.23689 z m 1.69147,-2.72338 c -10e-4,-0.0582 -0.0735,-0.26357 -0.16103,-0.45636 -0.11957,-0.26335 -0.2319,-0.37453 -0.4516,-0.44704 -0.50799,-0.167659 -0.89002,0.0968 -1.07586,0.74484 l -0.0758,0.26439 h 0.88309 c 0.65102,0 0.8826,-0.0278 0.88123,-0.10583 z m 2.56713,2.73392 c -0.14907,-0.0909 -0.33418,-0.28736 -0.41135,-0.43659 -0.19457,-0.37625 -0.13464,-1.13959 0.11723,-1.49331 0.26362,-0.37022 0.95125,-0.68062 1.77319,-0.80042 0.78168,-0.11393 0.87633,-0.23414 0.48918,-0.62129 -0.16933,-0.16933 -0.29085,-0.2073 -0.65617,-0.20505 -0.24659,0.002 -0.65738,0.0749 -0.91287,0.1631 -0.51892,0.17912 -0.58179,0.1465 -0.60522,-0.31403 -0.008,-0.151339 -0.0178,-0.322589 -0.0225,-0.380549 -0.0136,-0.16943 0.94396,-0.38847 1.73043,-0.39584 0.59024,-0.006 0.79222,0.0282 1.10066,0.18372 0.63053,0.31796 0.67382,0.48384 0.67398,2.582339 v 1.79916 h -0.508 c -0.50519,0 -0.508,-10e-4 -0.508,-0.24782 v -0.24782 l -0.48186,0.29015 c -0.40796,0.24567 -0.56051,0.29011 -0.99483,0.28984 -0.35933,-2.5e-4 -0.59417,-0.0498 -0.78404,-0.16559 z m 1.56185,-0.81099 c 0.51775,-0.21632 0.61422,-0.35086 0.61422,-0.85656 0,-0.51539 -0.004,-0.51711 -0.68314,-0.3173 -0.67979,0.19992 -0.97775,0.5162 -0.87438,0.92811 0.0899,0.35807 0.44996,0.45189 0.9433,0.24575 z m 11.13815,0.81099 c -0.14907,-0.0909 -0.33418,-0.28736 -0.41135,-0.43659 -0.19457,-0.37625 -0.13464,-1.13959 0.11723,-1.49331 0.26362,-0.37022 0.95125,-0.68062 1.77319,-0.80042 0.78168,-0.11393 0.87633,-0.23414 0.48918,-0.62129 -0.16933,-0.16933 -0.29085,-0.2073 -0.65617,-0.20505 -0.24659,0.002 -0.65738,0.0749 -0.91287,0.1631 -0.51892,0.17912 -0.58179,0.1465 -0.60522,-0.31403 -0.008,-0.151339 -0.0178,-0.322589 -0.0225,-0.380549 -0.0136,-0.16943 0.94396,-0.38847 1.73043,-0.39584 0.59024,-0.006 0.79221,0.0282 1.10066,0.18372 0.63053,0.31796 0.67382,0.48384 0.67398,2.582339 v 1.79916 h -0.508 c -0.50519,0 -0.508,-10e-4 -0.508,-0.24782 v -0.24782 l -0.48186,0.29015 c -0.40797,0.24567 -0.56051,0.29011 -0.99483,0.28984 -0.35933,-2.5e-4 -0.59417,-0.0498 -0.78404,-0.16559 z m 1.56185,-0.81099 c 0.51775,-0.21632 0.61421,-0.35086 0.61421,-0.85656 0,-0.51539 -0.004,-0.51711 -0.68313,-0.3173 -0.67979,0.19992 -0.97775,0.5162 -0.87438,0.92811 0.0899,0.35807 0.44996,0.45189 0.9433,0.24575 z m 9.09609,0.83451 c -0.6137,-0.30242 -0.93725,-0.99643 -0.94282,-2.02241 -0.005,-0.86504 0.17441,-1.47607 0.55677,-1.899299 0.42801,-0.47375 0.89253,-0.62743 1.72421,-0.57043 l 0.6734,0.0462 0.0238,-0.981261 0.0238,-0.98125 0.42334,-0.1096 c 0.23283,-0.0603 0.47096,-0.11032 0.52916,-0.11122 0.0829,-0.001 0.10584,0.72281 0.10584,3.3427 v 3.34433 h -0.46567 c -0.43726,0 -0.46567,-0.0126 -0.46567,-0.20667 0,-0.26214 -0.11807,-0.3381 -0.2599,-0.16721 -0.35584,0.42876 -1.36244,0.59398 -1.92622,0.31616 z m 1.73445,-1.22583 0.28234,-0.27367 v -0.94346 c 0,-0.92885 -0.003,-0.94499 -0.21565,-1.04173 -0.34489,-0.15714 -0.91725,-0.12154 -1.1638,0.0724 -0.57844,0.455 -0.54836,2.20494 0.0422,2.45392 0.32402,0.13662 0.74923,0.0288 1.05492,-0.26746 z m -69.82166,-1.89145 v -3.175 h 1.86267 1.86267 v 0.50574 0.50574 l -1.24884,0.0234 -1.24883,0.0234 v 0.719661 0.71967 l 0.97246,0.0423 0.97246,0.0423 0.0598,0.33866 c 0.12016,0.68014 0.19066,0.635 -0.9917,0.635 h -1.0613 l 0.0241,0.86784 0.0241,0.86783 1.29117,0.0234 1.29116,0.0234 v 0.5058 0.50579 h -1.905 -1.905 z m 10.07534,0.92711 v -2.247889 l 0.48683,0.0254 c 0.47242,0.0246 0.48757,0.0329 0.51164,0.27939 0.0455,0.466349 0.0877,0.488039 0.35564,0.18289 0.27218,-0.30998 0.72189,-0.56389 0.99876,-0.56389 0.1283,0 0.18127,0.0754 0.22293,0.3175 0.0301,0.17463 0.0747,0.418909 0.0992,0.542849 0.0415,0.21021 0.0142,0.23417 -0.40733,0.35671 -0.25427,0.0739 -0.60821,0.26519 -0.80941,0.43741 l -0.35757,0.30606 v 1.30574 1.30573 h -0.55033 -0.55033 z m 7.47082,-0.98509 0.0222,-3.23299 0.42333,-0.10971 c 0.23283,-0.0603 0.47096,-0.11045 0.52917,-0.11135 0.0803,-0.001 0.10583,0.32452 0.10583,1.35129 v 1.352921 l 0.38234,-0.2695 c 0.30904,-0.21783 0.48503,-0.27603 0.91809,-0.3036 0.63577,-0.0405 0.99379,0.10848 1.243,0.5172 0.15081,0.247349 0.1653,0.435829 0.16559,2.154889 v 1.88383 h -0.54531 -0.54529 l -0.0262,-1.65797 c -0.0244,-1.54276 -0.038,-1.66677 -0.19552,-1.78445 -0.23717,-0.17714 -0.74447,-0.0947 -1.10384,0.17943 l -0.29316,0.22361 v 1.51969 1.51969 h -0.55135 -0.55134 l 0.0222,-3.23298 z m 31.89918,0.98509 v -2.247889 l 0.48683,0.0254 c 0.46086,0.024 0.48826,0.0378 0.51362,0.25823 0.0272,0.2364 0.13134,0.30328 0.22821,0.14655 0.0293,-0.0475 0.23985,-0.1808 0.46784,-0.29633 0.75732,-0.38376 1.60199,-0.24358 1.94759,0.32322 0.15082,0.247349 0.1653,0.435829 0.16559,2.154889 v 1.88383 h -0.5453 -0.5453 l -0.0262,-1.65797 c -0.0244,-1.54276 -0.038,-1.66677 -0.19553,-1.78445 -0.23717,-0.17714 -0.74447,-0.0947 -1.10383,0.17943 l -0.29317,0.22361 v 1.51969 1.51969 h -0.55033 -0.55034 v -2.24789 z m 12.61533,0 v -2.247889 l 0.48683,0.0254 c 0.46087,0.024 0.48827,0.0378 0.51362,0.25823 0.0272,0.2364 0.13135,0.30328 0.22821,0.14655 0.0293,-0.0475 0.23986,-0.1808 0.46785,-0.29633 0.75731,-0.38376 1.60198,-0.24358 1.94758,0.32322 0.15082,0.247349 0.16531,0.435829 0.16559,2.154889 v 1.88383 h -0.5453 -0.54529 l -0.0262,-1.65797 c -0.0244,-1.54276 -0.038,-1.66677 -0.19553,-1.78445 -0.23717,-0.17714 -0.74446,-0.0947 -1.10383,0.17943 l -0.29317,0.22361 v 1.51969 1.51969 h -0.55033 -0.55034 v -2.24789 z"
       style="fill:#0f6363;fill-opacity:1;stroke-width:0.0846667"
       id="path696" /></g></svg>
