<?xml version="1.0" encoding="UTF-8" standalone="no"?>
<!-- Created with Inkscape (http://www.inkscape.org/) -->

<svg
   version="1.1"
   id="svg1"
   width="258.66666"
   height="258.66666"
   viewBox="0 0 258.66666 258.66666"
   sodipodi:docname="ubc-dark.svg"
   inkscape:version="1.3 (0e150ed6c4, 2023-07-21)"
   xmlns:inkscape="http://www.inkscape.org/namespaces/inkscape"
   xmlns:sodipodi="http://sodipodi.sourceforge.net/DTD/sodipodi-0.dtd"
   xmlns="http://www.w3.org/2000/svg"
   xmlns:svg="http://www.w3.org/2000/svg">
  <defs
     id="defs1" />
  <sodipodi:namedview
     id="namedview1"
     pagecolor="#393939"
     bordercolor="#000000"
     borderopacity="0.25"
     inkscape:showpageshadow="2"
     inkscape:pageopacity="0.0"
     inkscape:pagecheckerboard="0"
     inkscape:deskcolor="#d1d1d1"
     inkscape:zoom="1.5773197"
     inkscape:cx="180.05228"
     inkscape:cy="195.90195"
     inkscape:window-width="1920"
     inkscape:window-height="1044"
     inkscape:window-x="1050"
     inkscape:window-y="117"
     inkscape:window-maximized="1"
     inkscape:current-layer="g1">
    <inkscape:page
       x="0"
       y="0"
       inkscape:label="1"
       id="page1"
       width="258.66666"
       height="258.66666"
       margin="0"
       bleed="0"
       inkscape:export-filename="ubc-dark.png"
       inkscape:export-xdpi="150"
       inkscape:export-ydpi="150" />
  </sodipodi:namedview>
  <g
     id="g1"
     inkscape:groupmode="layer"
     inkscape:label="1">
    <path
       id="path2"
       d="m 1459.17,1667.75 -13.26,-48.62 h -4.42 c -13.26,13.26 -26.94,25.44 -39.78,30.94 -18.17,7.78 -30.94,13.26 -48.62,13.26 -35.35,0 -61.87,-13.26 -88.39,-44.2 -26.51,-30.93 -39.77,-66.29 -39.77,-106.07 0,-39.77 11.88,-71.76 35.35,-101.65 25.16,-32.03 57.46,-48.62 92.81,-48.62 17.68,0 30.45,5.49 48.62,13.26 12.84,5.5 26.52,13.26 44.2,22.1 4.41,0 8.84,0 8.84,0 l -8.84,-44.2 c -17.68,-8.83 -35.5,-11.06 -53.04,-13.25 -18.08,-2.25 -35.35,-4.42 -57.45,-4.42 -48.62,0 -88.52,8.68 -123.75,30.93 -48.72,30.77 -70.71,79.56 -70.71,145.85 0,53.04 20.99,98.52 61.87,132.59 38.7,32.26 88.39,48.62 145.85,48.62 17.68,0 35.35,0 53.03,-4.42 17.68,-4.42 35.36,-13.26 57.46,-22.1"
       style="fill:#ffffff;fill-opacity:1;fill-rule:evenodd;stroke:none"
       transform="matrix(0.13333333,0,0,-0.13333333,0,258.66667)" />
    <path
       id="path3"
       d="m 791.805,1464.45 c 0,-35.34 -12.231,-67.4 -39.778,-92.82 -29.925,-27.63 -66.293,-39.77 -110.488,-39.77 -39.777,0 -75.137,8.84 -110.492,26.52 -35.356,17.67 -53.031,39.77 -53.031,70.71 v 260.76 h 79.55 v -234.24 c 0,-26.5 7.551,-45.26 22.098,-61.88 16.461,-18.81 35.356,-26.52 61.875,-26.52 4.418,0 8.84,0 8.84,0 22.098,0 45.949,6.29 66.293,22.1 19.73,15.35 30.937,35.36 30.937,57.46 v 243.08 h 44.196 v -225.4"
       style="fill:#ffffff;fill-opacity:1;fill-rule:evenodd;stroke:none"
       transform="matrix(0.13333333,0,0,-0.13333333,0,258.66667)" />
    <path
       id="path4"
       d="m 478.016,1181.59 c 70.711,0 79.55,35.36 163.523,35.36 83.973,0 97.231,-35.36 163.524,-35.36 70.714,0 79.554,35.36 163.527,35.36 83.97,0 97.23,-35.36 163.52,-35.36 66.3,0 79.56,35.36 163.53,35.36 83.97,0 92.81,-35.36 163.53,-35.36 v 0 79.55 c -70.72,0 -79.56,35.36 -163.53,35.36 -83.97,0 -97.23,-35.36 -163.53,-35.36 -66.29,0 -79.55,35.36 -163.52,35.36 -83.973,0 -92.813,-35.36 -163.527,-35.36 -66.293,0 -79.551,35.36 -163.524,35.36 -83.973,0 -92.812,-35.36 -163.523,-35.36 v -79.55"
       style="fill:#ffffff;fill-opacity:1;fill-rule:evenodd;stroke:none"
       transform="matrix(0.13333333,0,0,-0.13333333,0,258.66667)" />
    <path
       id="path5"
       d="m 968.59,275.57 c 309.37,97.231 384.5,269.598 486.16,486.157 L 1229.34,598.199 1357.52,885.477 1149.79,655.656 1247.02,1009.23 1083.5,717.531 1127.7,1084.36 1003.95,757.309 968.59,1168.33 928.813,757.309 805.063,1084.36 853.68,717.531 685.734,1009.23 787.383,655.656 575.246,885.477 703.414,598.199 482.434,761.727 C 584.082,545.168 654.797,372.801 968.59,275.57"
       style="fill:#ffffff;fill-opacity:1;fill-rule:evenodd;stroke:none"
       transform="matrix(0.13333333,0,0,-0.13333333,0,258.66667)" />
    <path
       id="path6"
       d="m 478.016,920.832 c 70.711,0 79.55,30.938 163.523,30.938 17.676,0 30.938,0 39.777,0 l -22.101,79.55 c -4.418,0 -8.836,0 -17.676,0 -83.973,0 -92.812,-35.351 -163.523,-30.93 z m 278.429,8.84 c 13.262,-4.418 30.938,-8.84 48.618,-8.84 0,0 0,0 4.421,0 l -13.257,79.558 c -39.782,0 -61.875,13.25 -97.231,26.52 z m 128.172,8.84 c 13.258,4.418 26.516,8.84 44.196,13.258 l 4.421,79.55 c -30.937,-8.84 -53.039,-17.68 -75.132,-26.52 z m 123.743,13.258 c 17.68,-4.418 30.94,-8.84 44.2,-13.258 l 26.52,70.718 c -26.52,4.41 -44.2,17.68 -79.553,22.09 z m 119.34,-30.938 h 4.41 c 17.68,0 35.36,0 48.62,4.422 l 53.04,97.226 c -35.36,-8.84 -53.04,-22.09 -97.23,-22.09 z m 123.75,30.938 c 13.25,0 26.51,0 44.19,0 83.97,0 92.81,-30.938 163.53,-30.938 v 0 79.558 c -70.72,0 -79.56,30.93 -163.53,30.93 -8.84,0 -13.26,0 -17.68,0 l -26.51,-79.55"
       style="fill:#ffffff;fill-opacity:1;fill-rule:evenodd;stroke:none"
       transform="matrix(0.13333333,0,0,-0.13333333,0,258.66667)" />
    <path
       id="path7"
       d="m 478.016,1053.42 c 70.711,0 79.55,30.94 163.523,30.94 79.551,0 92.813,-26.52 150.266,-30.94 l -8.84,79.55 c -48.613,4.42 -66.293,30.94 -141.426,30.94 -83.973,0 -92.812,-35.36 -163.523,-35.36 z m 362.406,0 c 35.355,8.84 53.035,26.52 97.23,30.94 l 8.84,79.55 c -61.875,-8.84 -79.554,-30.94 -132.59,-35.36 z m 154.683,30.94 c 48.615,-4.42 66.295,-22.1 101.655,-30.94 l 26.52,75.13 c -53.04,4.42 -70.72,30.94 -137.01,35.36 z m 150.275,-30.94 c 57.45,0 70.71,30.94 150.26,30.94 83.97,0 92.81,-30.94 163.53,-30.94 v 0 79.55 c -70.72,0 -79.56,30.94 -163.53,30.94 -75.13,0 -92.81,-26.52 -141.43,-30.94 l -8.83,-79.55"
       style="fill:#ffffff;fill-opacity:1;fill-rule:evenodd;stroke:none"
       transform="matrix(0.13333333,0,0,-0.13333333,0,258.66667)" />
    <path
       id="path8"
       d="m 968.59,147.402 c 119.33,35.356 243.08,83.973 344.73,167.946 70.71,57.453 132.59,128.168 172.36,207.722 61.88,114.91 83.98,238.657 83.98,371.246 V 1791.5 H 363.102 V 894.316 C 367.523,761.727 385.203,637.98 447.078,523.07 486.852,443.516 548.727,372.801 619.441,315.348 721.09,231.375 844.84,182.758 968.59,147.402 Z M 389.621,1764.98 V 894.316 c 0,-362.41 203.301,-618.746 578.969,-720.398 371.25,101.652 578.97,357.988 578.97,720.398 V 1764.98 H 389.621"
       style="fill:#ffffff;fill-opacity:1;fill-rule:evenodd;stroke:none"
       transform="matrix(0.13333333,0,0,-0.13333333,0,258.66667)" />
    <path
       id="path9"
       d="m 959.75,1508.64 h -44.195 v -141.43 h 39.777 c 40.313,0 66.298,27.77 66.298,70.72 0,34.75 -29.567,70.71 -61.88,70.71 z m 8.84,-167.94 H 840.422 v 344.73 h 167.938 c 26.52,0 53.04,-8.84 70.72,-22.1 17.68,-17.68 30.94,-35.36 30.94,-57.46 0,-17.67 -13.26,-35.35 -30.94,-48.61 -22.1,-17.68 -44.2,-26.52 -70.72,-30.94 v -4.42 c 30.94,0 57.46,-4.42 79.56,-22.1 17.68,-13.26 30.94,-30.93 30.94,-57.45 0,-26.52 -13.26,-53.04 -35.36,-70.72 -22.1,-22.09 -53.04,-30.93 -88.395,-30.93 z m -22.098,318.21 h -30.937 v -123.75 h 39.777 c 32.918,0 61.878,28.08 61.878,66.29 0,38.21 -39.558,57.46 -70.718,57.46"
       style="fill:#ffffff;fill-opacity:1;fill-rule:evenodd;stroke:none"
       transform="matrix(0.13333333,0,0,-0.13333333,0,258.66667)" />
  </g>
</svg>
